<svg width="25" height="25" viewBox="0 0 25 25" fill="none" xmlns="http://www.w3.org/2000/svg">
<mask id="path-1-outside-1_477_231" maskUnits="userSpaceOnUse" x="-0.800049" y="-0.800781" width="26" height="26" fill="black">
<rect fill="white" x="-0.800049" y="-0.800781" width="26" height="26"/>
<path d="M15.5467 12.1997C15.5467 10.846 14.7318 9.62587 13.4813 9.10768C12.2308 8.59052 10.7912 8.87626 9.83412 9.83344C8.87695 10.7906 8.59119 12.2302 9.10835 13.4806C9.6266 14.7311 10.8467 15.546 12.2004 15.546C14.0473 15.5449 15.5455 14.0466 15.5467 12.1997ZM12.2004 14.0977C11.4334 14.0977 10.7413 13.6349 10.4469 12.9255C10.1535 12.2171 10.3154 11.4001 10.8587 10.8579C11.4008 10.3147 12.2178 10.1528 12.9262 10.4461C13.6357 10.7406 14.0985 11.4327 14.0985 12.1997C14.0963 13.247 13.2478 14.0956 12.2004 14.0977ZM12.2004 7.3007C11.8006 7.3007 11.4757 6.97584 11.4757 6.57602V4.58236C11.4757 4.18254 11.8006 3.85876 12.2004 3.85876C12.6002 3.85876 12.9251 4.18254 12.9251 4.58236V6.57602C12.9251 6.76833 12.848 6.95195 12.7122 7.08773C12.5764 7.22354 12.3927 7.3007 12.2004 7.3007ZM12.2004 17.0983C12.3927 17.0983 12.5764 17.1754 12.7121 17.3112C12.8479 17.447 12.9251 17.6306 12.9251 17.8229V19.8166C12.9251 20.2164 12.6002 20.5402 12.2004 20.5402C11.8006 20.5402 11.4757 20.2164 11.4757 19.8166V17.8229C11.4757 17.4231 11.8006 17.0983 12.2004 17.0983ZM19.8177 12.924H17.824C17.4242 12.924 17.0993 12.5991 17.0993 12.1993C17.0993 11.7995 17.4242 11.4747 17.824 11.4747H19.8177C20.2175 11.4747 20.5413 11.7995 20.5413 12.1993C20.5413 12.5991 20.2175 12.924 19.8177 12.924ZM4.58429 11.4758H6.57795L6.57686 11.4747C6.97668 11.4747 7.30154 11.7995 7.30154 12.1994C7.30154 12.5992 6.97668 12.924 6.57686 12.924H4.5832C4.18338 12.924 3.85961 12.5992 3.85961 12.1994C3.85961 11.7995 4.18338 11.4747 4.5832 11.4747L4.58429 11.4758ZM18.0966 6.30303C18.2324 6.43884 18.3084 6.62244 18.3084 6.81474C18.3084 7.00704 18.2324 7.19067 18.0966 7.32645L16.6885 8.72255C16.3995 8.93006 16.0041 8.89855 15.752 8.64758C15.501 8.39552 15.4695 8.00006 15.677 7.71105L17.0851 6.303C17.3654 6.02812 17.8152 6.02816 18.0966 6.30303ZM6.30401 18.0956C6.16821 17.9598 6.09215 17.7762 6.09215 17.5839C6.09215 17.3916 6.16821 17.208 6.30401 17.0722L7.71207 15.6761C8.00107 15.4686 8.39653 15.5001 8.6486 15.7511C8.89957 16.0031 8.93107 16.3986 8.72356 16.6876L7.31551 18.0956C7.1797 18.2325 6.99502 18.3097 6.80269 18.3097C6.61473 18.3064 6.43549 18.2292 6.30401 18.0956ZM15.6768 16.6875C15.4693 16.3985 15.5008 16.0031 15.7518 15.751C16.0038 15.5 16.3993 15.4685 16.6883 15.6761L18.0964 17.0841C18.2322 17.2199 18.3082 17.4035 18.3082 17.5958C18.3082 17.787 18.2322 17.9717 18.0964 18.1064C17.9616 18.2444 17.778 18.3216 17.5857 18.3216C17.3934 18.3205 17.2087 18.2433 17.0729 18.1064L15.6768 16.6875ZM7.7119 8.72263L6.30385 7.31458C6.04853 7.02777 6.06048 6.59098 6.3321 6.31939C6.60371 6.04777 7.04047 6.03583 7.32729 6.29222L8.72338 7.71115C8.93089 8.00016 8.89938 8.39561 8.64841 8.64769C8.39635 8.89866 8.00091 8.93014 7.7119 8.72263ZM0.200062 7.27439V3.82052C0.200062 1.82035 1.82105 0.199219 3.82136 0.199219H7.27523C7.67505 0.199219 7.99882 0.522994 7.99882 0.922812C7.99882 1.32371 7.67505 1.64749 7.27523 1.64749H3.82136C2.62083 1.64749 1.64844 2.61987 1.64844 3.82041V7.27428C1.64844 7.67409 1.32467 7.99787 0.923767 7.99787C0.523949 7.99787 0.200062 7.6742 0.200062 7.27439ZM24.1999 3.82052V7.27439C24.1999 7.6742 23.8762 7.99798 23.4764 7.99798C23.0755 7.99798 22.7517 7.6742 22.7517 7.27439V3.82052C22.7517 3.2447 22.5224 2.69169 22.115 2.28428C21.7076 1.87687 21.1546 1.6476 20.5788 1.6476H17.1249C16.7251 1.6476 16.4013 1.32383 16.4013 0.922923C16.4013 0.523106 16.7251 0.19933 17.1249 0.19933H20.5788C21.5392 0.19933 22.4605 0.580679 23.1395 1.25972C23.8186 1.93875 24.1999 2.8601 24.1999 3.82052ZM0.200062 20.5781V17.1242C0.200062 16.7244 0.523838 16.4006 0.923655 16.4006C1.32456 16.4006 1.64833 16.7244 1.64833 17.1242V20.5781C1.64833 21.7786 2.62072 22.751 3.82125 22.751H7.27512C7.67494 22.751 7.99871 23.0748 7.99871 23.4757C7.99871 23.8755 7.67494 24.1993 7.27512 24.1993H3.82125C1.82108 24.1993 0.200062 22.5784 0.200062 20.5781ZM24.1999 17.1242V20.5781C24.1999 22.5783 22.579 24.1994 20.5786 24.1994H17.1248C16.725 24.1994 16.4012 23.8756 16.4012 23.4758C16.4012 23.0749 16.725 22.7511 17.1248 22.7511H20.5786C21.1545 22.7511 21.7075 22.5219 22.1149 22.1144C22.5223 21.707 22.7516 21.154 22.7516 20.5782V17.1243C22.7516 16.7245 23.0753 16.4007 23.4762 16.4007C23.8761 16.4007 24.1999 16.7244 24.1999 17.1242Z"/>
</mask>
<path d="M15.5467 12.1997C15.5467 10.846 14.7318 9.62587 13.4813 9.10768C12.2308 8.59052 10.7912 8.87626 9.83412 9.83344C8.87695 10.7906 8.59119 12.2302 9.10835 13.4806C9.6266 14.7311 10.8467 15.546 12.2004 15.546C14.0473 15.5449 15.5455 14.0466 15.5467 12.1997ZM12.2004 14.0977C11.4334 14.0977 10.7413 13.6349 10.4469 12.9255C10.1535 12.2171 10.3154 11.4001 10.8587 10.8579C11.4008 10.3147 12.2178 10.1528 12.9262 10.4461C13.6357 10.7406 14.0985 11.4327 14.0985 12.1997C14.0963 13.247 13.2478 14.0956 12.2004 14.0977ZM12.2004 7.3007C11.8006 7.3007 11.4757 6.97584 11.4757 6.57602V4.58236C11.4757 4.18254 11.8006 3.85876 12.2004 3.85876C12.6002 3.85876 12.9251 4.18254 12.9251 4.58236V6.57602C12.9251 6.76833 12.848 6.95195 12.7122 7.08773C12.5764 7.22354 12.3927 7.3007 12.2004 7.3007ZM12.2004 17.0983C12.3927 17.0983 12.5764 17.1754 12.7121 17.3112C12.8479 17.447 12.9251 17.6306 12.9251 17.8229V19.8166C12.9251 20.2164 12.6002 20.5402 12.2004 20.5402C11.8006 20.5402 11.4757 20.2164 11.4757 19.8166V17.8229C11.4757 17.4231 11.8006 17.0983 12.2004 17.0983ZM19.8177 12.924H17.824C17.4242 12.924 17.0993 12.5991 17.0993 12.1993C17.0993 11.7995 17.4242 11.4747 17.824 11.4747H19.8177C20.2175 11.4747 20.5413 11.7995 20.5413 12.1993C20.5413 12.5991 20.2175 12.924 19.8177 12.924ZM4.58429 11.4758H6.57795L6.57686 11.4747C6.97668 11.4747 7.30154 11.7995 7.30154 12.1994C7.30154 12.5992 6.97668 12.924 6.57686 12.924H4.5832C4.18338 12.924 3.85961 12.5992 3.85961 12.1994C3.85961 11.7995 4.18338 11.4747 4.5832 11.4747L4.58429 11.4758ZM18.0966 6.30303C18.2324 6.43884 18.3084 6.62244 18.3084 6.81474C18.3084 7.00704 18.2324 7.19067 18.0966 7.32645L16.6885 8.72255C16.3995 8.93006 16.0041 8.89855 15.752 8.64758C15.501 8.39552 15.4695 8.00006 15.677 7.71105L17.0851 6.303C17.3654 6.02812 17.8152 6.02816 18.0966 6.30303ZM6.30401 18.0956C6.16821 17.9598 6.09215 17.7762 6.09215 17.5839C6.09215 17.3916 6.16821 17.208 6.30401 17.0722L7.71207 15.6761C8.00107 15.4686 8.39653 15.5001 8.6486 15.7511C8.89957 16.0031 8.93107 16.3986 8.72356 16.6876L7.31551 18.0956C7.1797 18.2325 6.99502 18.3097 6.80269 18.3097C6.61473 18.3064 6.43549 18.2292 6.30401 18.0956ZM15.6768 16.6875C15.4693 16.3985 15.5008 16.0031 15.7518 15.751C16.0038 15.5 16.3993 15.4685 16.6883 15.6761L18.0964 17.0841C18.2322 17.2199 18.3082 17.4035 18.3082 17.5958C18.3082 17.787 18.2322 17.9717 18.0964 18.1064C17.9616 18.2444 17.778 18.3216 17.5857 18.3216C17.3934 18.3205 17.2087 18.2433 17.0729 18.1064L15.6768 16.6875ZM7.7119 8.72263L6.30385 7.31458C6.04853 7.02777 6.06048 6.59098 6.3321 6.31939C6.60371 6.04777 7.04047 6.03583 7.32729 6.29222L8.72338 7.71115C8.93089 8.00016 8.89938 8.39561 8.64841 8.64769C8.39635 8.89866 8.00091 8.93014 7.7119 8.72263ZM0.200062 7.27439V3.82052C0.200062 1.82035 1.82105 0.199219 3.82136 0.199219H7.27523C7.67505 0.199219 7.99882 0.522994 7.99882 0.922812C7.99882 1.32371 7.67505 1.64749 7.27523 1.64749H3.82136C2.62083 1.64749 1.64844 2.61987 1.64844 3.82041V7.27428C1.64844 7.67409 1.32467 7.99787 0.923767 7.99787C0.523949 7.99787 0.200062 7.6742 0.200062 7.27439ZM24.1999 3.82052V7.27439C24.1999 7.6742 23.8762 7.99798 23.4764 7.99798C23.0755 7.99798 22.7517 7.6742 22.7517 7.27439V3.82052C22.7517 3.2447 22.5224 2.69169 22.115 2.28428C21.7076 1.87687 21.1546 1.6476 20.5788 1.6476H17.1249C16.7251 1.6476 16.4013 1.32383 16.4013 0.922923C16.4013 0.523106 16.7251 0.19933 17.1249 0.19933H20.5788C21.5392 0.19933 22.4605 0.580679 23.1395 1.25972C23.8186 1.93875 24.1999 2.8601 24.1999 3.82052ZM0.200062 20.5781V17.1242C0.200062 16.7244 0.523838 16.4006 0.923655 16.4006C1.32456 16.4006 1.64833 16.7244 1.64833 17.1242V20.5781C1.64833 21.7786 2.62072 22.751 3.82125 22.751H7.27512C7.67494 22.751 7.99871 23.0748 7.99871 23.4757C7.99871 23.8755 7.67494 24.1993 7.27512 24.1993H3.82125C1.82108 24.1993 0.200062 22.5784 0.200062 20.5781ZM24.1999 17.1242V20.5781C24.1999 22.5783 22.579 24.1994 20.5786 24.1994H17.1248C16.725 24.1994 16.4012 23.8756 16.4012 23.4758C16.4012 23.0749 16.725 22.7511 17.1248 22.7511H20.5786C21.1545 22.7511 21.7075 22.5219 22.1149 22.1144C22.5223 21.707 22.7516 21.154 22.7516 20.5782V17.1243C22.7516 16.7245 23.0753 16.4007 23.4762 16.4007C23.8761 16.4007 24.1999 16.7244 24.1999 17.1242Z" fill="white"/>
<path d="M12.2004 17.0994H12.3004V17.0983H12.2004H12.1004V17.0994H12.2004ZM6.3051 18.0945L6.23441 18.0238L6.23332 18.0249L6.30401 18.0956L6.37471 18.1663L6.37579 18.1652L6.3051 18.0945ZM15.5467 12.1997L15.7467 12.1998V12.1997H15.5467ZM13.4813 9.10768L13.5578 8.92291L13.5577 8.92286L13.4813 9.10768ZM9.83412 9.83344L9.97554 9.97486L9.97554 9.97486L9.83412 9.83344ZM9.10835 13.4806L8.92354 13.557L8.92359 13.5572L9.10835 13.4806ZM12.2004 15.546V15.746H12.2005L12.2004 15.546ZM12.2004 14.0977V14.2977L12.2008 14.2977L12.2004 14.0977ZM10.4469 12.9255L10.2621 13.002L10.2622 13.0021L10.4469 12.9255ZM10.8587 10.8579L10.9999 10.9995L11.0002 10.9992L10.8587 10.8579ZM12.9262 10.4461L13.0028 10.2614L13.0027 10.2614L12.9262 10.4461ZM14.0985 12.1997L14.2985 12.2001V12.1997H14.0985ZM12.7122 7.08773L12.5707 6.9463L12.5707 6.94631L12.7122 7.08773ZM12.7121 17.3112L12.5707 17.4526L12.5707 17.4526L12.7121 17.3112ZM4.58429 11.4758L4.4428 11.6171L4.50139 11.6758H4.58429V11.4758ZM6.57795 11.4758V11.6758H7.06046L6.71944 11.3344L6.57795 11.4758ZM6.57686 11.4747V11.2747H6.09435L6.43537 11.616L6.57686 11.4747ZM4.5832 11.4747L4.72469 11.3333L4.6661 11.2747H4.5832V11.4747ZM18.0966 6.30303L18.238 6.1616L18.2363 6.15996L18.0966 6.30303ZM18.0966 7.32645L18.2374 7.46848L18.238 7.46789L18.0966 7.32645ZM16.6885 8.72255L16.8052 8.885L16.8181 8.87575L16.8293 8.86457L16.6885 8.72255ZM15.752 8.64758L15.6103 8.7887L15.6109 8.78931L15.752 8.64758ZM15.677 7.71105L15.5356 7.56963L15.5241 7.58116L15.5146 7.5944L15.677 7.71105ZM17.0851 6.303L16.945 6.16019L16.9437 6.16157L17.0851 6.303ZM6.30401 18.0956L6.44659 17.9553L6.44543 17.9542L6.30401 18.0956ZM6.30401 17.0722L6.16319 16.9302L6.1626 16.9307L6.30401 17.0722ZM7.71207 15.6761L7.59542 15.5136L7.58252 15.5229L7.57125 15.5341L7.71207 15.6761ZM8.6486 15.7511L8.79033 15.6099L8.78971 15.6093L8.6486 15.7511ZM8.72356 16.6876L8.86498 16.829L8.87651 16.8175L8.88602 16.8042L8.72356 16.6876ZM7.31551 18.0956L7.17409 17.9542L7.17353 17.9548L7.31551 18.0956ZM6.80269 18.3097L6.79922 18.5097H6.80269V18.3097ZM15.6768 16.6875L15.5144 16.8042L15.5234 16.8168L15.5343 16.8278L15.6768 16.6875ZM15.7518 15.751L15.6107 15.6093L15.6101 15.6099L15.7518 15.751ZM16.6883 15.6761L16.8297 15.5346L16.8182 15.5231L16.805 15.5136L16.6883 15.6761ZM18.0964 18.1064L17.9555 17.9644L17.9533 17.9667L18.0964 18.1064ZM17.5857 18.3216L17.5846 18.5216H17.5857V18.3216ZM17.0729 18.1064L16.9304 18.2467L16.9309 18.2473L17.0729 18.1064ZM7.7119 8.72263L7.57048 8.86405L7.58201 8.87558L7.59525 8.88509L7.7119 8.72263ZM6.30385 7.31458L6.15421 7.44778L6.16243 7.456L6.30385 7.31458ZM6.3321 6.31939L6.47351 6.46081L6.47352 6.46081L6.3321 6.31939ZM7.32729 6.29222L7.47014 6.15167L7.46058 6.14312L7.32729 6.29222ZM8.72338 7.71115L8.88584 7.5945L8.87681 7.58192L8.86594 7.57088L8.72338 7.71115ZM8.64841 8.64769L8.78953 8.78941L8.79014 8.7888L8.64841 8.64769ZM22.115 2.28428L21.9736 2.4257L21.9736 2.4257L22.115 2.28428ZM22.1149 22.1144L21.9735 21.973L21.9735 21.973L22.1149 22.1144ZM15.5467 12.1997H15.7467C15.7467 10.7651 14.8831 9.47208 13.5578 8.92291L13.4813 9.10768L13.4047 9.29244C14.5805 9.77966 15.3467 10.9268 15.3467 12.1997H15.5467ZM13.4813 9.10768L13.5577 8.92286C12.2326 8.37484 10.707 8.67759 9.69269 9.69203L9.83412 9.83344L9.97554 9.97486C10.8754 9.07493 12.2289 8.80619 13.4049 9.2925L13.4813 9.10768ZM9.83412 9.83344L9.6927 9.69202C8.67828 10.7064 8.37551 12.232 8.92354 13.557L9.10835 13.4806L9.29317 13.4042C8.80687 12.2284 9.07561 10.8748 9.97554 9.97486L9.83412 9.83344ZM9.10835 13.4806L8.92359 13.5572C9.47281 14.8824 10.7658 15.746 12.2004 15.746V15.546V15.346C10.9275 15.346 9.78039 14.5798 9.29312 13.404L9.10835 13.4806ZM12.2004 15.546L12.2005 15.746C14.1578 15.7448 15.7455 14.1571 15.7467 12.1998L15.5467 12.1997L15.3467 12.1996C15.3456 13.9361 13.9369 15.345 12.2003 15.346L12.2004 15.546ZM12.2004 14.0977V13.8977C11.5144 13.8977 10.8951 13.4837 10.6316 12.8488L10.4469 12.9255L10.2622 13.0021C10.5875 13.786 11.3523 14.2977 12.2004 14.2977V14.0977ZM10.4469 12.9255L10.6317 12.8489C10.3692 12.2152 10.5141 11.4843 10.9999 10.9995L10.8587 10.8579L10.7174 10.7164C10.1167 11.3158 9.93784 12.219 10.2621 13.002L10.4469 12.9255ZM10.8587 10.8579L11.0002 10.9992C11.485 10.5134 12.2159 10.3685 12.8497 10.6309L12.9262 10.4461L13.0027 10.2614C12.2197 9.93711 11.3165 10.116 10.7171 10.7166L10.8587 10.8579ZM12.9262 10.4461L12.8495 10.6309C13.4845 10.8944 13.8985 11.5137 13.8985 12.1997H14.0985H14.2985C14.2985 11.3516 13.7868 10.5868 13.0028 10.2614L12.9262 10.4461ZM14.0985 12.1997L13.8985 12.1993C13.8965 13.1365 13.1372 13.8958 12.2 13.8977L12.2004 14.0977L12.2008 14.2977C13.3583 14.2953 14.2961 13.3576 14.2985 12.2001L14.0985 12.1997ZM12.2004 7.3007V7.1007C11.9111 7.1007 11.6757 6.86538 11.6757 6.57602H11.4757H11.2757C11.2757 7.0863 11.6901 7.5007 12.2004 7.5007V7.3007ZM11.4757 6.57602H11.6757V4.58236H11.4757H11.2757V6.57602H11.4757ZM11.4757 4.58236H11.6757C11.6757 4.29339 11.9107 4.05876 12.2004 4.05876V3.85876V3.65876C11.6905 3.65876 11.2757 4.07169 11.2757 4.58236H11.4757ZM12.2004 3.85876V4.05876C12.4902 4.05876 12.7251 4.29339 12.7251 4.58236H12.9251H13.1251C13.1251 4.07169 12.7103 3.65876 12.2004 3.65876V3.85876ZM12.9251 4.58236H12.7251V6.57602H12.9251H13.1251V4.58236H12.9251ZM12.9251 6.57602H12.7251C12.7251 6.71456 12.6695 6.84751 12.5707 6.9463L12.7122 7.08773L12.8536 7.22916C13.0264 7.05638 13.1251 6.82209 13.1251 6.57602H12.9251ZM12.7122 7.08773L12.5707 6.94631C12.4719 7.04514 12.3389 7.1007 12.2004 7.1007V7.3007V7.5007C12.4465 7.5007 12.6808 7.40194 12.8536 7.22915L12.7122 7.08773ZM12.2004 17.0983V17.2983C12.339 17.2983 12.4719 17.3538 12.5707 17.4526L12.7121 17.3112L12.8536 17.1698C12.6808 16.997 12.4465 16.8983 12.2004 16.8983V17.0983ZM12.7121 17.3112L12.5707 17.4526C12.6695 17.5515 12.7251 17.6844 12.7251 17.8229H12.9251H13.1251C13.1251 17.5768 13.0264 17.3426 12.8536 17.1698L12.7121 17.3112ZM12.9251 17.8229H12.7251V19.8166H12.9251H13.1251V17.8229H12.9251ZM12.9251 19.8166H12.7251C12.7251 20.1056 12.4902 20.3402 12.2004 20.3402V20.5402V20.7402C12.7103 20.7402 13.1251 20.3272 13.1251 19.8166H12.9251ZM12.2004 20.5402V20.3402C11.9107 20.3402 11.6757 20.1056 11.6757 19.8166H11.4757H11.2757C11.2757 20.3272 11.6905 20.7402 12.2004 20.7402V20.5402ZM11.4757 19.8166H11.6757V17.8229H11.4757H11.2757V19.8166H11.4757ZM11.4757 17.8229H11.6757C11.6757 17.5336 11.911 17.2983 12.2004 17.2983V17.0983V16.8983C11.6902 16.8983 11.2757 17.3126 11.2757 17.8229H11.4757ZM19.8177 12.924V12.724H17.824V12.924V13.124H19.8177V12.924ZM17.824 12.924V12.724C17.5347 12.724 17.2993 12.4887 17.2993 12.1993H17.0993H16.8993C16.8993 12.7096 17.3137 13.124 17.824 13.124V12.924ZM17.0993 12.1993H17.2993C17.2993 11.91 17.5347 11.6747 17.824 11.6747V11.4747V11.2747C17.3137 11.2747 16.8993 11.6891 16.8993 12.1993H17.0993ZM17.824 11.4747V11.6747H19.8177V11.4747V11.2747H17.824V11.4747ZM19.8177 11.4747V11.6747C20.1066 11.6747 20.3413 11.9096 20.3413 12.1993H20.5413H20.7413C20.7413 11.6894 20.3283 11.2747 19.8177 11.2747V11.4747ZM20.5413 12.1993H20.3413C20.3413 12.4891 20.1066 12.724 19.8177 12.724V12.924V13.124C20.3283 13.124 20.7413 12.7092 20.7413 12.1993H20.5413ZM4.58429 11.4758V11.6758H6.57795V11.4758V11.2758H4.58429V11.4758ZM6.57795 11.4758L6.71944 11.3344L6.71835 11.3333L6.57686 11.4747L6.43537 11.616L6.43646 11.6171L6.57795 11.4758ZM6.57686 11.4747V11.6747C6.86622 11.6747 7.10154 11.91 7.10154 12.1994H7.30154H7.50154C7.50154 11.6891 7.08714 11.2747 6.57686 11.2747V11.4747ZM7.30154 12.1994H7.10154C7.10154 12.4887 6.86622 12.724 6.57686 12.724V12.924V13.124C7.08714 13.124 7.50154 12.7096 7.50154 12.1994H7.30154ZM6.57686 12.924V12.724H4.5832V12.924V13.124H6.57686V12.924ZM4.5832 12.924V12.724C4.29423 12.724 4.05961 12.4891 4.05961 12.1994H3.85961H3.65961C3.65961 12.7092 4.07254 13.124 4.5832 13.124V12.924ZM3.85961 12.1994H4.05961C4.05961 11.9096 4.29423 11.6747 4.5832 11.6747V11.4747V11.2747C4.07254 11.2747 3.65961 11.6895 3.65961 12.1994H3.85961ZM4.5832 11.4747L4.44171 11.616L4.4428 11.6171L4.58429 11.4758L4.72578 11.3344L4.72469 11.3333L4.5832 11.4747ZM18.0966 6.30303L17.9552 6.44445C18.0534 6.54273 18.1084 6.67545 18.1084 6.81474H18.3084H18.5084C18.5084 6.56943 18.4113 6.33495 18.238 6.16161L18.0966 6.30303ZM18.3084 6.81474H18.1084C18.1084 6.95404 18.0534 7.08678 17.9552 7.18502L18.0966 7.32645L18.238 7.46789C18.4113 7.29456 18.5084 7.06004 18.5084 6.81474H18.3084ZM18.0966 7.32645L17.9558 7.18443L16.5477 8.58052L16.6885 8.72255L16.8293 8.86457L18.2374 7.46848L18.0966 7.32645ZM16.6885 8.72255L16.5719 8.56009C16.3622 8.71066 16.0758 8.68771 15.8931 8.50585L15.752 8.64758L15.6109 8.78931C15.9324 9.1094 16.4369 9.14945 16.8052 8.885L16.6885 8.72255ZM15.752 8.64758L15.8937 8.50647C15.7119 8.32383 15.6889 8.03741 15.8395 7.82769L15.677 7.71105L15.5146 7.5944C15.2501 7.9627 15.2902 8.46721 15.6103 8.7887L15.752 8.64758ZM15.677 7.71105L15.8185 7.85247L17.2265 6.44442L17.0851 6.303L16.9437 6.16157L15.5356 7.56963L15.677 7.71105ZM17.0851 6.303L17.2251 6.44579C17.4275 6.24735 17.753 6.24698 17.9568 6.4461L18.0966 6.30303L18.2363 6.15996C17.8774 5.80934 17.3033 5.80889 16.9451 6.1602L17.0851 6.303ZM6.30401 18.0956L6.44543 17.9542C6.34716 17.8559 6.29215 17.7232 6.29215 17.5839H6.09215H5.89215C5.89215 17.8292 5.98925 18.0637 6.16259 18.237L6.30401 18.0956ZM6.09215 17.5839H6.29215C6.29215 17.4446 6.34716 17.3119 6.44542 17.2136L6.30401 17.0722L6.1626 16.9307C5.98925 17.1041 5.89215 17.3386 5.89215 17.5839H6.09215ZM6.30401 17.0722L6.44483 17.2142L7.85288 15.8181L7.71207 15.6761L7.57125 15.5341L6.1632 16.9302L6.30401 17.0722ZM7.71207 15.6761L7.82871 15.8385C8.03843 15.688 8.32483 15.7109 8.50749 15.8928L8.6486 15.7511L8.78971 15.6093C8.46822 15.2892 7.96372 15.2492 7.59542 15.5136L7.71207 15.6761ZM8.6486 15.7511L8.50687 15.8922C8.68872 16.0748 8.71168 16.3612 8.5611 16.5709L8.72356 16.6876L8.88602 16.8042C9.15046 16.4359 9.11042 15.9314 8.79032 15.6099L8.6486 15.7511ZM8.72356 16.6876L8.58214 16.5462L7.17409 17.9542L7.31551 18.0956L7.45693 18.2371L8.86498 16.829L8.72356 16.6876ZM7.31551 18.0956L7.17353 17.9548C7.07512 18.054 6.94148 18.1097 6.80269 18.1097V18.3097V18.5097C7.04856 18.5097 7.28429 18.4111 7.4575 18.2365L7.31551 18.0956ZM6.80269 18.3097L6.80616 18.1097C6.67069 18.1074 6.54137 18.0517 6.44658 17.9553L6.30401 18.0956L6.16144 18.2359C6.32961 18.4068 6.55877 18.5055 6.79922 18.5096L6.80269 18.3097ZM15.6768 16.6875L15.8393 16.5709C15.6887 16.3612 15.7117 16.0748 15.8935 15.8921L15.7518 15.751L15.6101 15.6099C15.29 15.9314 15.2499 16.4359 15.5144 16.8042L15.6768 16.6875ZM15.7518 15.751L15.8929 15.8927C16.0755 15.7109 16.362 15.6879 16.5717 15.8385L16.6883 15.6761L16.805 15.5136C16.4367 15.2492 15.9322 15.2892 15.6107 15.6093L15.7518 15.751ZM16.6883 15.6761L16.5469 15.8175L17.9549 17.2255L18.0964 17.0841L18.2378 16.9427L16.8297 15.5346L16.6883 15.6761ZM18.0964 17.0841L17.9549 17.2255C18.0532 17.3238 18.1082 17.4565 18.1082 17.5958H18.3082H18.5082C18.5082 17.3505 18.4111 17.116 18.2378 16.9427L18.0964 17.0841ZM18.3082 17.5958H18.1082C18.1082 17.7343 18.053 17.8677 17.9555 17.9644L18.0964 18.1064L18.2372 18.2484C18.4113 18.0757 18.5082 17.8397 18.5082 17.5958H18.3082ZM18.0964 18.1064L17.9533 17.9667C17.8562 18.0661 17.7242 18.1216 17.5857 18.1216V18.3216V18.5216C17.8319 18.5216 18.0671 18.4227 18.2395 18.2462L18.0964 18.1064ZM17.5857 18.3216L17.5869 18.1216C17.4473 18.1208 17.3133 18.0648 17.2149 17.9656L17.0729 18.1064L16.9309 18.2473C17.1042 18.4219 17.3396 18.5202 17.5846 18.5216L17.5857 18.3216ZM17.0729 18.1064L17.2155 17.9662L15.8194 16.5473L15.6768 16.6875L15.5343 16.8278L16.9304 18.2467L17.0729 18.1064ZM7.7119 8.72263L7.85332 8.58121L6.44527 7.17316L6.30385 7.31458L6.16243 7.456L7.57048 8.86405L7.7119 8.72263ZM6.30385 7.31458L6.45323 7.1816C6.26813 6.97366 6.27707 6.65724 6.47351 6.46081L6.3321 6.31939L6.19068 6.17796C5.84389 6.52473 5.82893 7.08187 6.15446 7.44756L6.30385 7.31458ZM6.3321 6.31939L6.47352 6.46081C6.66993 6.2644 6.98611 6.25549 7.19399 6.44133L7.32729 6.29222L7.46058 6.14312C7.09484 5.81616 6.53749 5.83114 6.19067 6.17797L6.3321 6.31939ZM7.32729 6.29222L7.18472 6.43249L8.58082 7.85142L8.72338 7.71115L8.86594 7.57088L7.46985 6.15196L7.32729 6.29222ZM8.72338 7.71115L8.56092 7.8278C8.7115 8.03751 8.68854 8.32392 8.50668 8.50657L8.64841 8.64769L8.79014 8.7888C9.11023 8.46731 9.15029 7.96281 8.88584 7.5945L8.72338 7.71115ZM8.64841 8.64769L8.5073 8.50596C8.32467 8.6878 8.03827 8.71075 7.82855 8.56017L7.7119 8.72263L7.59525 8.88509C7.96355 9.14952 8.46804 9.10951 8.78953 8.78941L8.64841 8.64769ZM0.200062 7.27439H0.400062V3.82052H0.200062H6.24359e-05V7.27439H0.200062ZM0.200062 3.82052H0.400062C0.400062 1.9308 1.93152 0.399219 3.82136 0.399219V0.199219V-0.000781253C1.71059 -0.000781253 6.24359e-05 1.7099 6.24359e-05 3.82052H0.200062ZM3.82136 0.199219V0.399219H7.27523V0.199219V-0.000781253H3.82136V0.199219ZM7.27523 0.199219V0.399219C7.56459 0.399219 7.79882 0.633451 7.79882 0.922812H7.99882H8.19882C8.19882 0.412537 7.7855 -0.000781253 7.27523 -0.000781253V0.199219ZM7.99882 0.922812H7.79882C7.79882 1.21345 7.5644 1.44749 7.27523 1.44749V1.64749V1.84749C7.7857 1.84749 8.19882 1.43398 8.19882 0.922812H7.99882ZM7.27523 1.64749V1.44749H3.82136V1.64749V1.84749H7.27523V1.64749ZM3.82136 1.64749V1.44749C2.51037 1.44749 1.44844 2.50942 1.44844 3.82041H1.64844H1.84844C1.84844 2.73033 2.73129 1.84749 3.82136 1.84749V1.64749ZM1.64844 3.82041H1.44844V7.27428H1.64844H1.84844V3.82041H1.64844ZM1.64844 7.27428H1.44844C1.44844 7.56344 1.21441 7.79787 0.923767 7.79787V7.99787V8.19787C1.43493 8.19787 1.84844 7.78474 1.84844 7.27428H1.64844ZM0.923767 7.99787V7.79787C0.634326 7.79787 0.400062 7.56367 0.400062 7.27439H0.200062H6.24359e-05C6.24359e-05 7.78474 0.413573 8.19787 0.923767 8.19787V7.99787ZM24.1999 3.82052H24V7.27439H24.1999H24.4V3.82052H24.1999ZM24.1999 7.27439H24C24 7.56375 23.7657 7.79798 23.4764 7.79798V7.99798V8.19798C23.9866 8.19798 24.4 7.78466 24.4 7.27439H24.1999ZM23.4764 7.99798V7.79798C23.1857 7.79798 22.9517 7.56355 22.9517 7.27439H22.7517H22.5517C22.5517 7.78486 22.9652 8.19798 23.4764 8.19798V7.99798ZM22.7517 7.27439H22.9517V3.82052H22.7517H22.5517V7.27439H22.7517ZM22.7517 3.82052H22.9517C22.9517 3.1916 22.7013 2.58773 22.2564 2.14285L22.115 2.28428L21.9736 2.4257C22.3435 2.79565 22.5517 3.2978 22.5517 3.82052H22.7517ZM22.115 2.28428L22.2564 2.14286C21.8116 1.69798 21.2077 1.4476 20.5788 1.4476V1.6476V1.8476C21.1015 1.8476 21.6036 2.05575 21.9736 2.4257L22.115 2.28428ZM20.5788 1.6476V1.4476H17.1249V1.6476V1.8476H20.5788V1.6476ZM17.1249 1.6476V1.4476C16.8357 1.4476 16.6013 1.21356 16.6013 0.922923H16.4013H16.2013C16.2013 1.43409 16.6144 1.8476 17.1249 1.8476V1.6476ZM16.4013 0.922923H16.6013C16.6013 0.633563 16.8355 0.39933 17.1249 0.39933V0.19933V-0.000669986C16.6146 -0.000669986 16.2013 0.412648 16.2013 0.922923H16.4013ZM17.1249 0.19933V0.39933H20.5788V0.19933V-0.000669986H17.1249V0.19933ZM20.5788 0.19933V0.39933C21.4862 0.39933 22.3566 0.759638 22.9981 1.40114L23.1395 1.25972L23.281 1.11829C22.5644 0.401721 21.5922 -0.000669986 20.5788 -0.000669986V0.19933ZM23.1395 1.25972L22.9981 1.40114C23.6396 2.04264 24 2.9131 24 3.82052H24.1999H24.4C24.4 2.80709 23.9975 1.83487 23.281 1.11829L23.1395 1.25972ZM0.200062 20.5781H0.400062V17.1242H0.200062H6.24359e-05V20.5781H0.200062ZM0.200062 17.1242H0.400062C0.400062 16.8349 0.634295 16.6006 0.923655 16.6006V16.4006V16.2006C0.413381 16.2006 6.24359e-05 16.6139 6.24359e-05 17.1242H0.200062ZM0.923655 16.4006V16.6006C1.2143 16.6006 1.44833 16.8351 1.44833 17.1242H1.64833H1.84833C1.84833 16.6137 1.43482 16.2006 0.923655 16.2006V16.4006ZM1.64833 17.1242H1.44833V20.5781H1.64833H1.84833V17.1242H1.64833ZM1.64833 20.5781H1.44833C1.44833 21.8891 2.51026 22.951 3.82125 22.951V22.751V22.551C2.73117 22.551 1.84833 21.6682 1.84833 20.5781H1.64833ZM3.82125 22.751V22.951H7.27512V22.751V22.551H3.82125V22.751ZM7.27512 22.751V22.951C7.56428 22.951 7.79871 23.185 7.79871 23.4757H7.99871H8.19871C8.19871 22.9645 7.78559 22.551 7.27512 22.551V22.751ZM7.99871 23.4757H7.79871C7.79871 23.765 7.56448 23.9993 7.27512 23.9993V24.1993V24.3993C7.78539 24.3993 8.19871 23.986 8.19871 23.4757H7.99871ZM7.27512 24.1993V23.9993H3.82125V24.1993V24.3993H7.27512V24.1993ZM3.82125 24.1993V23.9993C1.93153 23.9993 0.400062 22.4679 0.400062 20.5781H0.200062H6.24359e-05C6.24359e-05 22.6889 1.71063 24.3993 3.82125 24.3993V24.1993ZM24.1999 17.1242H24V20.5781H24.1999H24.4V17.1242H24.1999ZM24.1999 20.5781H24C24 22.4678 22.4685 23.9994 20.5786 23.9994V24.1994V24.3994C22.6894 24.3994 24.4 22.6887 24.4 20.5781H24.1999ZM20.5786 24.1994V23.9994H17.1248V24.1994V24.3994H20.5786V24.1994ZM17.1248 24.1994V23.9994C16.8354 23.9994 16.6012 23.7652 16.6012 23.4758H16.4012H16.2012C16.2012 23.9861 16.6145 24.3994 17.1248 24.3994V24.1994ZM16.4012 23.4758H16.6012C16.6012 23.1852 16.8356 22.9511 17.1248 22.9511V22.7511V22.5511C16.6143 22.5511 16.2012 22.9646 16.2012 23.4758H16.4012ZM17.1248 22.7511V22.9511H20.5786V22.7511V22.5511H17.1248V22.7511ZM20.5786 22.7511V22.9511C21.2076 22.9511 21.8114 22.7008 22.2563 22.2559L22.1149 22.1144L21.9735 21.973C21.6035 22.343 21.1014 22.5511 20.5786 22.5511V22.7511ZM22.1149 22.1144L22.2563 22.2559C22.7012 21.811 22.9516 21.2071 22.9516 20.5782H22.7516H22.5516C22.5516 21.1009 22.3434 21.6031 21.9735 21.973L22.1149 22.1144ZM22.7516 20.5782H22.9516V17.1243H22.7516H22.5516V20.5782H22.7516ZM22.7516 17.1243H22.9516C22.9516 16.8352 23.1856 16.6007 23.4762 16.6007V16.4007V16.2007C22.9651 16.2007 22.5516 16.6139 22.5516 17.1243H22.7516ZM23.4762 16.4007V16.6007C23.7657 16.6007 24 16.8349 24 17.1242H24.1999H24.4C24.4 16.6139 23.9864 16.2007 23.4762 16.2007V16.4007Z" fill="white" mask="url(#path-1-outside-1_477_231)"/>
</svg>
