<svg width="24" height="24" viewBox="0 0 24 24" fill="none" xmlns="http://www.w3.org/2000/svg">
<path d="M23.5227 21.2188L15.4569 13.153C15.1475 12.8495 14.9727 12.4331 14.9737 12C14.9727 11.5669 15.1475 11.1505 15.4569 10.847L23.5227 2.78123C24.1591 2.14485 24.1591 1.11366 23.5227 0.477282C22.8863 -0.159094 21.8551 -0.159094 21.2188 0.477282L13.153 8.5431C12.8495 8.85247 12.4331 9.02726 12 9.02629C11.5669 9.02727 11.1505 8.85246 10.847 8.5431L2.78123 0.477283C2.14485 -0.159093 1.11366 -0.159093 0.477283 0.477283C-0.159093 1.11366 -0.159093 2.14485 0.477282 2.78123L8.5431 10.847C8.85247 11.1505 9.02726 11.5669 9.02629 12C9.02727 12.4331 8.85246 12.8495 8.5431 13.153L0.477282 21.2188C-0.159094 21.8551 -0.159094 22.8863 0.477282 23.5227C1.11366 24.1591 2.14485 24.1591 2.78123 23.5227L10.847 15.4569C11.1505 15.1475 11.5669 14.9727 12 14.9737C12.4331 14.9727 12.8495 15.1475 13.153 15.4569L21.2188 23.5227C21.8551 24.1591 22.8863 24.1591 23.5227 23.5227C24.1591 22.8863 24.1591 21.8551 23.5227 21.2188Z" fill="#060D16"/>
</svg>
