<svg width="16" height="16" viewBox="0 0 16 16" fill="currentColor" xmlns="http://www.w3.org/2000/svg">
<path d="M13.7614 12.6094L9.72845 8.57648C9.57376 8.42474 9.48637 8.21655 9.48685 8C9.48636 7.78345 9.57377 7.57524 9.72845 7.42352L13.7614 3.39061C14.0795 3.07243 14.0795 2.55683 13.7614 2.23864C13.4432 1.92045 12.9276 1.92045 12.6094 2.23864L8.57648 6.27155C8.42474 6.42623 8.21655 6.51363 8 6.51315C7.78345 6.51364 7.57524 6.42623 7.42352 6.27155L3.39061 2.23864C3.07243 1.92045 2.55683 1.92045 2.23864 2.23864C1.92045 2.55683 1.92045 3.07243 2.23864 3.39061L6.27155 7.42352C6.42623 7.57526 6.51363 7.78345 6.51315 8C6.51364 8.21655 6.42623 8.42476 6.27155 8.57648L2.23864 12.6094C1.92045 12.9276 1.92045 13.4432 2.23864 13.7614C2.55683 14.0795 3.07243 14.0795 3.39061 13.7614L7.42352 9.72845C7.57526 9.57376 7.78345 9.48637 8 9.48685C8.21655 9.48636 8.42476 9.57377 8.57648 9.72845L12.6094 13.7614C12.9276 14.0795 13.4432 14.0795 13.7614 13.7614C14.0795 13.4432 14.0795 12.9276 13.7614 12.6094Z" fill="currentColor"/>
</svg>
