<svg width="14" height="16" viewBox="0 0 14 16" fill="none" xmlns="http://www.w3.org/2000/svg">
<path d="M3.39077 0C3.1034 0.000679333 2.87037 0.233714 2.86969 0.521083V1.39068H2.26097C1.01771 1.39068 0 2.4084 0 3.65165V13.739C0 14.9823 1.01703 16 2.26097 16L11.4781 15.9993C12.7213 15.9993 13.739 14.9816 13.739 13.7384V3.65097C13.739 2.40772 12.722 1.39001 11.4781 1.39001H10.8693V0.520404V0.521083C10.8693 0.233714 10.6363 0.00067829 10.3482 0C10.2103 0 10.0772 0.0543501 9.97935 0.15218C9.88083 0.250011 9.82581 0.382486 9.82581 0.521083V1.39068H7.39162V0.521083C7.39162 0.382489 7.33659 0.250011 7.23808 0.15218C7.14025 0.0543501 7.00777 0 6.86917 0C6.58181 0.000679333 6.34877 0.233714 6.34809 0.521083V1.39068H3.9139V0.521083C3.9139 0.382489 3.85887 0.250011 3.76036 0.15218C3.66253 0.0543501 3.52938 0 3.39146 0H3.39077ZM2.26097 2.43419H2.86969V3.65095C2.86969 3.78955 2.92404 3.92271 3.02187 4.02054C3.1197 4.11837 3.25217 4.1734 3.39077 4.17407C3.52936 4.17407 3.66252 4.11904 3.76035 4.02121C3.85886 3.9227 3.91389 3.79023 3.91389 3.65095V2.43419H6.34808V3.65095C6.3474 3.78955 6.40243 3.92271 6.50026 4.02054C6.59809 4.11837 6.73057 4.1734 6.86916 4.17407C7.00776 4.17407 7.14023 4.11904 7.23874 4.02121C7.33657 3.9227 7.3916 3.79023 7.3916 3.65095V2.43419H9.82579V3.65095C9.82512 3.79023 9.88015 3.92271 9.97865 4.02121C10.0765 4.11904 10.2096 4.17407 10.3482 4.17407C10.4868 4.17339 10.6193 4.11837 10.7171 4.02054C10.815 3.92271 10.8693 3.78955 10.8693 3.65095V2.43419H11.478C12.1615 2.43419 12.6962 2.9675 12.6962 3.65095V5.21692L1.0428 5.2176V3.65163C1.0428 2.96818 1.57746 2.43487 2.26092 2.43487L2.26097 2.43419ZM1.04284 6.25974H12.6962V13.7383C12.6962 14.4218 12.1615 14.9564 11.4781 14.9564H2.261C1.57755 14.9564 1.04288 14.4218 1.04288 13.7383L1.04284 6.25974ZM3.39077 7.47854C3.1034 7.47922 2.87037 7.71226 2.86969 7.99963C2.87037 8.28699 3.1034 8.52003 3.39077 8.52071H10.3483C10.6363 8.52003 10.8694 8.28699 10.8694 7.99963C10.8694 7.71226 10.6363 7.47922 10.3483 7.47854H3.39077ZM3.39077 9.5642C3.25218 9.56488 3.1197 9.6199 3.02187 9.71774C2.92404 9.81625 2.86969 9.94872 2.86969 10.0873C2.87037 10.3747 3.1034 10.6077 3.39077 10.6084H6.86918C7.15723 10.6091 7.39094 10.3754 7.39162 10.0873C7.39162 9.94872 7.33659 9.81557 7.23876 9.71774C7.14093 9.61922 7.00777 9.5642 6.86918 9.5642H3.39077Z" fill="white"/>
</svg>
