<svg width="17" height="17" viewBox="0 0 17 17" fill="none" xmlns="http://www.w3.org/2000/svg">
<mask id="path-1-outside-1_436_2033" maskUnits="userSpaceOnUse" x="-0.899902" y="-0.664062" width="18" height="18" fill="black">
<rect fill="white" x="-0.899902" y="-0.664062" width="18" height="18"/>
<path d="M8.10008 0.335938C3.68908 0.335938 0.100098 3.92492 0.100098 8.33592C0.100098 12.7469 3.68908 16.3359 8.10008 16.3359C8.30579 16.3359 8.47275 16.1689 8.47275 15.9632C8.47275 15.7575 8.30579 15.5905 8.10008 15.5905C4.09971 15.5905 0.845409 12.3363 0.845409 8.33588C0.845409 4.33551 4.09971 1.08121 8.10008 1.08121C12.1004 1.08121 15.3547 4.33551 15.3547 8.33588C15.3547 8.54159 15.5217 8.70855 15.7274 8.70855C15.9331 8.70855 16.1001 8.54159 16.1001 8.33588C16.1001 3.92488 12.5111 0.335938 8.10008 0.335938Z"/>
<path d="M8.10008 1.52619C7.89436 1.52619 7.7274 1.69315 7.7274 1.89887V3.1861C7.7274 3.39182 7.89436 3.55878 8.10008 3.55878C8.30579 3.55878 8.47275 3.39182 8.47275 3.1861V1.89887C8.47275 1.69315 8.30579 1.52619 8.10008 1.52619Z"/>
<path d="M12.8771 8.33588C12.8771 8.54159 13.044 8.70855 13.2497 8.70855H14.537C14.7427 8.70855 14.9097 8.54159 14.9097 8.33588C14.9097 8.13017 14.7427 7.9632 14.537 7.9632H13.2497C13.0433 7.9632 12.8771 8.13017 12.8771 8.33588Z"/>
<path d="M3.3231 8.33588C3.3231 8.13017 3.15614 7.9632 2.95043 7.9632H1.66319C1.45748 7.9632 1.29052 8.13017 1.29052 8.33588C1.29052 8.54159 1.45748 8.70855 1.66319 8.70855H2.95043C3.15614 8.70855 3.3231 8.54159 3.3231 8.33588Z"/>
<path d="M8.10008 13.1121C7.89436 13.1121 7.7274 13.2791 7.7274 13.4848V14.772C7.7274 14.9777 7.89436 15.1447 8.10008 15.1447C8.30579 15.1447 8.47275 14.9777 8.47275 14.772V13.4848C8.47275 13.2791 8.30579 13.1121 8.10008 13.1121Z"/>
<path d="M10.831 4.3437C10.9555 4.3437 11.0762 4.28183 11.147 4.16854L11.8298 3.07732C11.9386 2.90291 11.8857 2.67259 11.7112 2.56377C11.5368 2.45495 11.3065 2.50787 11.1977 2.68228L10.5149 3.7735C10.4061 3.94791 10.459 4.17823 10.6335 4.28705C10.6953 4.32506 10.7632 4.3437 10.831 4.3437Z"/>
<path d="M3.93199 5.28806L2.84078 4.60531C2.66636 4.49649 2.43605 4.54941 2.32723 4.72382C2.2184 4.89824 2.27132 5.12855 2.44574 5.23737L3.53695 5.92012C3.59882 5.95888 3.66665 5.97677 3.73448 5.97677C3.85896 5.97677 3.97971 5.9149 4.0505 5.80161C4.15933 5.62719 4.10641 5.39762 3.93199 5.28806Z"/>
<path d="M4.48801 14.1079C4.54913 14.1467 4.6177 14.1646 4.68554 14.1646C4.80927 14.1646 4.93077 14.1027 5.00156 13.9894L5.68431 12.8982C5.79313 12.7238 5.74095 12.4935 5.56579 12.3847C5.39138 12.2751 5.16106 12.328 5.05224 12.5032L4.3695 13.5944C4.26068 13.7688 4.3136 13.9991 4.48801 14.1079Z"/>
<path d="M13.4711 4.76997L12.359 5.41917C12.1816 5.52278 12.1212 5.75086 12.2248 5.929C12.2941 6.04751 12.4186 6.11385 12.5468 6.11385C12.6109 6.11385 12.675 6.09745 12.7346 6.06317L13.8467 5.41397C14.0241 5.31036 14.0845 5.08228 13.9809 4.90414C13.8773 4.726 13.6485 4.66637 13.4711 4.76997Z"/>
<path d="M5.50466 4.26108C5.56876 4.26108 5.63286 4.24468 5.69249 4.2104C5.86988 4.10679 5.93026 3.87871 5.82665 3.70057L5.17745 2.58924C5.07385 2.4111 4.84502 2.35147 4.66762 2.45508C4.49023 2.55868 4.42985 2.78676 4.53346 2.96491L5.18266 4.07623C5.25198 4.19474 5.37645 4.26108 5.50466 4.26108Z"/>
<path d="M2.54116 11.9523C2.60526 11.9523 2.66936 11.9359 2.72899 11.9017L3.84106 11.2532C4.01845 11.1496 4.07883 10.9215 3.97522 10.7434C3.87162 10.5652 3.64353 10.5056 3.46539 10.6092L2.35332 11.2577C2.17592 11.3613 2.11555 11.5894 2.21916 11.7675C2.28773 11.886 2.41295 11.9523 2.54116 11.9523Z"/>
<path d="M8.10008 4.32217C7.89437 4.32217 7.72741 4.48913 7.72741 4.69485V8.11687L4.99861 9.63964C4.81898 9.73952 4.75414 9.96685 4.85475 10.1465C4.92333 10.2687 5.05003 10.338 5.18047 10.338C5.24159 10.338 5.3042 10.3231 5.36159 10.2911L8.28121 8.66246C8.39972 8.59538 8.47276 8.4709 8.47276 8.336V4.69493C8.47276 4.48921 8.3058 4.32217 8.10008 4.32217Z"/>
<path d="M12.1959 9.44563C10.5494 9.44563 9.21004 10.785 9.21004 12.4322C9.21004 14.0787 10.5494 15.4188 12.1959 15.4188C13.8431 15.4188 15.1825 14.0794 15.1825 12.4322C15.1832 10.785 13.843 9.44563 12.1959 9.44563ZM13.4332 11.9105L12.5149 13.6584C12.4612 13.7605 12.3636 13.8313 12.251 13.8522C12.2294 13.8559 12.2071 13.8582 12.1854 13.8582C12.0945 13.8582 12.0051 13.8246 11.9365 13.7628L11.0182 12.9377C10.8654 12.8005 10.8527 12.5642 10.9899 12.4114C11.1278 12.2579 11.3633 12.2452 11.5161 12.3831L12.0781 12.8885L12.7735 11.5647C12.8697 11.3821 13.0948 11.3128 13.2766 11.4082C13.4592 11.5036 13.5293 11.7287 13.4332 11.9105Z"/>
</mask>
<path d="M8.10008 0.335938C3.68908 0.335938 0.100098 3.92492 0.100098 8.33592C0.100098 12.7469 3.68908 16.3359 8.10008 16.3359C8.30579 16.3359 8.47275 16.1689 8.47275 15.9632C8.47275 15.7575 8.30579 15.5905 8.10008 15.5905C4.09971 15.5905 0.845409 12.3363 0.845409 8.33588C0.845409 4.33551 4.09971 1.08121 8.10008 1.08121C12.1004 1.08121 15.3547 4.33551 15.3547 8.33588C15.3547 8.54159 15.5217 8.70855 15.7274 8.70855C15.9331 8.70855 16.1001 8.54159 16.1001 8.33588C16.1001 3.92488 12.5111 0.335938 8.10008 0.335938Z" fill="white"/>
<path d="M8.10008 1.52619C7.89436 1.52619 7.7274 1.69315 7.7274 1.89887V3.1861C7.7274 3.39182 7.89436 3.55878 8.10008 3.55878C8.30579 3.55878 8.47275 3.39182 8.47275 3.1861V1.89887C8.47275 1.69315 8.30579 1.52619 8.10008 1.52619Z" fill="white"/>
<path d="M12.8771 8.33588C12.8771 8.54159 13.044 8.70855 13.2497 8.70855H14.537C14.7427 8.70855 14.9097 8.54159 14.9097 8.33588C14.9097 8.13017 14.7427 7.9632 14.537 7.9632H13.2497C13.0433 7.9632 12.8771 8.13017 12.8771 8.33588Z" fill="white"/>
<path d="M3.3231 8.33588C3.3231 8.13017 3.15614 7.9632 2.95043 7.9632H1.66319C1.45748 7.9632 1.29052 8.13017 1.29052 8.33588C1.29052 8.54159 1.45748 8.70855 1.66319 8.70855H2.95043C3.15614 8.70855 3.3231 8.54159 3.3231 8.33588Z" fill="white"/>
<path d="M8.10008 13.1121C7.89436 13.1121 7.7274 13.2791 7.7274 13.4848V14.772C7.7274 14.9777 7.89436 15.1447 8.10008 15.1447C8.30579 15.1447 8.47275 14.9777 8.47275 14.772V13.4848C8.47275 13.2791 8.30579 13.1121 8.10008 13.1121Z" fill="white"/>
<path d="M10.831 4.3437C10.9555 4.3437 11.0762 4.28183 11.147 4.16854L11.8298 3.07732C11.9386 2.90291 11.8857 2.67259 11.7112 2.56377C11.5368 2.45495 11.3065 2.50787 11.1977 2.68228L10.5149 3.7735C10.4061 3.94791 10.459 4.17823 10.6335 4.28705C10.6953 4.32506 10.7632 4.3437 10.831 4.3437Z" fill="white"/>
<path d="M3.93199 5.28806L2.84078 4.60531C2.66636 4.49649 2.43605 4.54941 2.32723 4.72382C2.2184 4.89824 2.27132 5.12855 2.44574 5.23737L3.53695 5.92012C3.59882 5.95888 3.66665 5.97677 3.73448 5.97677C3.85896 5.97677 3.97971 5.9149 4.0505 5.80161C4.15933 5.62719 4.10641 5.39762 3.93199 5.28806Z" fill="white"/>
<path d="M4.48801 14.1079C4.54913 14.1467 4.6177 14.1646 4.68554 14.1646C4.80927 14.1646 4.93077 14.1027 5.00156 13.9894L5.68431 12.8982C5.79313 12.7238 5.74095 12.4935 5.56579 12.3847C5.39138 12.2751 5.16106 12.328 5.05224 12.5032L4.3695 13.5944C4.26068 13.7688 4.3136 13.9991 4.48801 14.1079Z" fill="white"/>
<path d="M13.4711 4.76997L12.359 5.41917C12.1816 5.52278 12.1212 5.75086 12.2248 5.929C12.2941 6.04751 12.4186 6.11385 12.5468 6.11385C12.6109 6.11385 12.675 6.09745 12.7346 6.06317L13.8467 5.41397C14.0241 5.31036 14.0845 5.08228 13.9809 4.90414C13.8773 4.726 13.6485 4.66637 13.4711 4.76997Z" fill="white"/>
<path d="M5.50466 4.26108C5.56876 4.26108 5.63286 4.24468 5.69249 4.2104C5.86988 4.10679 5.93026 3.87871 5.82665 3.70057L5.17745 2.58924C5.07385 2.4111 4.84502 2.35147 4.66762 2.45508C4.49023 2.55868 4.42985 2.78676 4.53346 2.96491L5.18266 4.07623C5.25198 4.19474 5.37645 4.26108 5.50466 4.26108Z" fill="white"/>
<path d="M2.54116 11.9523C2.60526 11.9523 2.66936 11.9359 2.72899 11.9017L3.84106 11.2532C4.01845 11.1496 4.07883 10.9215 3.97522 10.7434C3.87162 10.5652 3.64353 10.5056 3.46539 10.6092L2.35332 11.2577C2.17592 11.3613 2.11555 11.5894 2.21916 11.7675C2.28773 11.886 2.41295 11.9523 2.54116 11.9523Z" fill="white"/>
<path d="M8.10008 4.32217C7.89437 4.32217 7.72741 4.48913 7.72741 4.69485V8.11687L4.99861 9.63964C4.81898 9.73952 4.75414 9.96685 4.85475 10.1465C4.92333 10.2687 5.05003 10.338 5.18047 10.338C5.24159 10.338 5.3042 10.3231 5.36159 10.2911L8.28121 8.66246C8.39972 8.59538 8.47276 8.4709 8.47276 8.336V4.69493C8.47276 4.48921 8.3058 4.32217 8.10008 4.32217Z" fill="white"/>
<path d="M12.1959 9.44563C10.5494 9.44563 9.21004 10.785 9.21004 12.4322C9.21004 14.0787 10.5494 15.4188 12.1959 15.4188C13.8431 15.4188 15.1825 14.0794 15.1825 12.4322C15.1832 10.785 13.843 9.44563 12.1959 9.44563ZM13.4332 11.9105L12.5149 13.6584C12.4612 13.7605 12.3636 13.8313 12.251 13.8522C12.2294 13.8559 12.2071 13.8582 12.1854 13.8582C12.0945 13.8582 12.0051 13.8246 11.9365 13.7628L11.0182 12.9377C10.8654 12.8005 10.8527 12.5642 10.9899 12.4114C11.1278 12.2579 11.3633 12.2452 11.5161 12.3831L12.0781 12.8885L12.7735 11.5647C12.8697 11.3821 13.0948 11.3128 13.2766 11.4082C13.4592 11.5036 13.5293 11.7287 13.4332 11.9105Z" fill="white"/>
<path d="M8.10008 0.335938C3.68908 0.335938 0.100098 3.92492 0.100098 8.33592C0.100098 12.7469 3.68908 16.3359 8.10008 16.3359C8.30579 16.3359 8.47275 16.1689 8.47275 15.9632C8.47275 15.7575 8.30579 15.5905 8.10008 15.5905C4.09971 15.5905 0.845409 12.3363 0.845409 8.33588C0.845409 4.33551 4.09971 1.08121 8.10008 1.08121C12.1004 1.08121 15.3547 4.33551 15.3547 8.33588C15.3547 8.54159 15.5217 8.70855 15.7274 8.70855C15.9331 8.70855 16.1001 8.54159 16.1001 8.33588C16.1001 3.92488 12.5111 0.335938 8.10008 0.335938Z" stroke="white" stroke-width="0.2" mask="url(#path-1-outside-1_436_2033)"/>
<path d="M8.10008 1.52619C7.89436 1.52619 7.7274 1.69315 7.7274 1.89887V3.1861C7.7274 3.39182 7.89436 3.55878 8.10008 3.55878C8.30579 3.55878 8.47275 3.39182 8.47275 3.1861V1.89887C8.47275 1.69315 8.30579 1.52619 8.10008 1.52619Z" stroke="white" stroke-width="0.2" mask="url(#path-1-outside-1_436_2033)"/>
<path d="M12.8771 8.33588C12.8771 8.54159 13.044 8.70855 13.2497 8.70855H14.537C14.7427 8.70855 14.9097 8.54159 14.9097 8.33588C14.9097 8.13017 14.7427 7.9632 14.537 7.9632H13.2497C13.0433 7.9632 12.8771 8.13017 12.8771 8.33588Z" stroke="white" stroke-width="0.2" mask="url(#path-1-outside-1_436_2033)"/>
<path d="M3.3231 8.33588C3.3231 8.13017 3.15614 7.9632 2.95043 7.9632H1.66319C1.45748 7.9632 1.29052 8.13017 1.29052 8.33588C1.29052 8.54159 1.45748 8.70855 1.66319 8.70855H2.95043C3.15614 8.70855 3.3231 8.54159 3.3231 8.33588Z" stroke="white" stroke-width="0.2" mask="url(#path-1-outside-1_436_2033)"/>
<path d="M8.10008 13.1121C7.89436 13.1121 7.7274 13.2791 7.7274 13.4848V14.772C7.7274 14.9777 7.89436 15.1447 8.10008 15.1447C8.30579 15.1447 8.47275 14.9777 8.47275 14.772V13.4848C8.47275 13.2791 8.30579 13.1121 8.10008 13.1121Z" stroke="white" stroke-width="0.2" mask="url(#path-1-outside-1_436_2033)"/>
<path d="M10.831 4.3437C10.9555 4.3437 11.0762 4.28183 11.147 4.16854L11.8298 3.07732C11.9386 2.90291 11.8857 2.67259 11.7112 2.56377C11.5368 2.45495 11.3065 2.50787 11.1977 2.68228L10.5149 3.7735C10.4061 3.94791 10.459 4.17823 10.6335 4.28705C10.6953 4.32506 10.7632 4.3437 10.831 4.3437Z" stroke="white" stroke-width="0.2" mask="url(#path-1-outside-1_436_2033)"/>
<path d="M3.93199 5.28806L2.84078 4.60531C2.66636 4.49649 2.43605 4.54941 2.32723 4.72382C2.2184 4.89824 2.27132 5.12855 2.44574 5.23737L3.53695 5.92012C3.59882 5.95888 3.66665 5.97677 3.73448 5.97677C3.85896 5.97677 3.97971 5.9149 4.0505 5.80161C4.15933 5.62719 4.10641 5.39762 3.93199 5.28806Z" stroke="white" stroke-width="0.2" mask="url(#path-1-outside-1_436_2033)"/>
<path d="M4.48801 14.1079C4.54913 14.1467 4.6177 14.1646 4.68554 14.1646C4.80927 14.1646 4.93077 14.1027 5.00156 13.9894L5.68431 12.8982C5.79313 12.7238 5.74095 12.4935 5.56579 12.3847C5.39138 12.2751 5.16106 12.328 5.05224 12.5032L4.3695 13.5944C4.26068 13.7688 4.3136 13.9991 4.48801 14.1079Z" stroke="white" stroke-width="0.2" mask="url(#path-1-outside-1_436_2033)"/>
<path d="M13.4711 4.76997L12.359 5.41917C12.1816 5.52278 12.1212 5.75086 12.2248 5.929C12.2941 6.04751 12.4186 6.11385 12.5468 6.11385C12.6109 6.11385 12.675 6.09745 12.7346 6.06317L13.8467 5.41397C14.0241 5.31036 14.0845 5.08228 13.9809 4.90414C13.8773 4.726 13.6485 4.66637 13.4711 4.76997Z" stroke="white" stroke-width="0.2" mask="url(#path-1-outside-1_436_2033)"/>
<path d="M5.50466 4.26108C5.56876 4.26108 5.63286 4.24468 5.69249 4.2104C5.86988 4.10679 5.93026 3.87871 5.82665 3.70057L5.17745 2.58924C5.07385 2.4111 4.84502 2.35147 4.66762 2.45508C4.49023 2.55868 4.42985 2.78676 4.53346 2.96491L5.18266 4.07623C5.25198 4.19474 5.37645 4.26108 5.50466 4.26108Z" stroke="white" stroke-width="0.2" mask="url(#path-1-outside-1_436_2033)"/>
<path d="M2.54116 11.9523C2.60526 11.9523 2.66936 11.9359 2.72899 11.9017L3.84106 11.2532C4.01845 11.1496 4.07883 10.9215 3.97522 10.7434C3.87162 10.5652 3.64353 10.5056 3.46539 10.6092L2.35332 11.2577C2.17592 11.3613 2.11555 11.5894 2.21916 11.7675C2.28773 11.886 2.41295 11.9523 2.54116 11.9523Z" stroke="white" stroke-width="0.2" mask="url(#path-1-outside-1_436_2033)"/>
<path d="M8.10008 4.32217C7.89437 4.32217 7.72741 4.48913 7.72741 4.69485V8.11687L4.99861 9.63964C4.81898 9.73952 4.75414 9.96685 4.85475 10.1465C4.92333 10.2687 5.05003 10.338 5.18047 10.338C5.24159 10.338 5.3042 10.3231 5.36159 10.2911L8.28121 8.66246C8.39972 8.59538 8.47276 8.4709 8.47276 8.336V4.69493C8.47276 4.48921 8.3058 4.32217 8.10008 4.32217Z" stroke="white" stroke-width="0.2" mask="url(#path-1-outside-1_436_2033)"/>
<path d="M12.1959 9.44563C10.5494 9.44563 9.21004 10.785 9.21004 12.4322C9.21004 14.0787 10.5494 15.4188 12.1959 15.4188C13.8431 15.4188 15.1825 14.0794 15.1825 12.4322C15.1832 10.785 13.843 9.44563 12.1959 9.44563ZM13.4332 11.9105L12.5149 13.6584C12.4612 13.7605 12.3636 13.8313 12.251 13.8522C12.2294 13.8559 12.2071 13.8582 12.1854 13.8582C12.0945 13.8582 12.0051 13.8246 11.9365 13.7628L11.0182 12.9377C10.8654 12.8005 10.8527 12.5642 10.9899 12.4114C11.1278 12.2579 11.3633 12.2452 11.5161 12.3831L12.0781 12.8885L12.7735 11.5647C12.8697 11.3821 13.0948 11.3128 13.2766 11.4082C13.4592 11.5036 13.5293 11.7287 13.4332 11.9105Z" stroke="white" stroke-width="0.2" mask="url(#path-1-outside-1_436_2033)"/>
</svg>
