<svg width="16" height="16" viewBox="0 0 16 16" fill="none" xmlns="http://www.w3.org/2000/svg">
<path d="M8.71961 1C9.50707 1.0021 9.90675 1.0063 10.2518 1.0161L10.3876 1.021C10.5444 1.0266 10.6991 1.0336 10.886 1.042C11.6308 1.077 12.1389 1.19459 12.5848 1.36748C13.0468 1.54527 13.436 1.78606 13.8252 2.17454C14.1812 2.52434 14.4566 2.94763 14.6322 3.41488C14.8051 3.86076 14.9227 4.36893 14.9577 5.11439C14.9661 5.30058 14.9731 5.45528 14.9787 5.61277L14.9829 5.74856C14.9934 6.09294 14.9976 6.49262 14.999 7.28008L14.9997 7.80226V8.71921C15.0014 9.22977 14.996 9.74032 14.9836 10.2507L14.9794 10.3865C14.9738 10.544 14.9668 10.6987 14.9584 10.8849C14.9234 11.6304 14.8044 12.1378 14.6322 12.5844C14.4566 13.0517 14.1812 13.475 13.8252 13.8248C13.4754 14.1808 13.0521 14.4563 12.5848 14.6318C12.1389 14.8047 11.6308 14.9223 10.886 14.9573L10.3876 14.9783L10.2518 14.9825C9.90675 14.9923 9.50707 14.9972 8.71961 14.9986L8.19743 14.9993H7.28118C6.77039 15.0011 6.2596 14.9957 5.74896 14.9832L5.61317 14.979C5.447 14.9727 5.28087 14.9655 5.11479 14.9573C4.37003 14.9223 3.86185 14.8047 3.41528 14.6318C2.94828 14.4562 2.52523 14.1807 2.17564 13.8248C1.81932 13.475 1.54365 13.0517 1.36788 12.5844C1.19499 12.1385 1.07739 11.6304 1.0424 10.8849L1.0214 10.3865L1.0179 10.2507C1.00499 9.74033 0.999161 9.22977 1.0004 8.71921V7.28008C0.998461 6.76953 1.00359 6.25897 1.0158 5.74856L1.0207 5.61277C1.0263 5.45528 1.0333 5.30058 1.0417 5.11439C1.07669 4.36893 1.19429 3.86146 1.36718 3.41488C1.54336 2.94744 1.81951 2.52413 2.17634 2.17454C2.52573 1.81864 2.94853 1.54322 3.41528 1.36748C3.86185 1.19459 4.36933 1.077 5.11479 1.042C5.30098 1.0336 5.45637 1.0266 5.61317 1.021L5.74896 1.0168C6.25937 1.00436 6.76992 0.998996 7.28048 1.0007L8.71961 1ZM8.00004 4.49982C7.07183 4.49982 6.18164 4.86855 5.5253 5.5249C4.86895 6.18124 4.50022 7.07144 4.50022 7.99965C4.50022 8.92786 4.86895 9.81805 5.5253 10.4744C6.18164 11.1307 7.07183 11.4995 8.00004 11.4995C8.92826 11.4995 9.81845 11.1307 10.4748 10.4744C11.1311 9.81805 11.4999 8.92786 11.4999 7.99965C11.4999 7.07144 11.1311 6.18124 10.4748 5.5249C9.81845 4.86855 8.92826 4.49982 8.00004 4.49982ZM8.00004 5.89975C8.27581 5.89971 8.54888 5.95398 8.80367 6.05946C9.05845 6.16495 9.28997 6.31959 9.485 6.51455C9.68002 6.70951 9.83474 6.94098 9.94031 7.19573C10.0459 7.45048 10.1002 7.72354 10.1003 7.9993C10.1003 8.27506 10.0461 8.54813 9.94058 8.80292C9.83509 9.05771 9.68045 9.28922 9.48549 9.48425C9.29053 9.67927 9.05907 9.83399 8.80431 9.93956C8.54956 10.0451 8.27651 10.0995 8.00075 10.0995C7.44382 10.0995 6.9097 9.8783 6.5159 9.4845C6.12209 9.09069 5.90085 8.55657 5.90085 7.99965C5.90085 7.44272 6.12209 6.9086 6.5159 6.5148C6.9097 6.12099 7.44382 5.89975 8.00075 5.89975M11.6756 3.44988C11.4435 3.44988 11.221 3.54206 11.0569 3.70615C10.8928 3.87023 10.8006 4.09278 10.8006 4.32483C10.8006 4.55689 10.8928 4.77943 11.0569 4.94352C11.221 5.10761 11.4435 5.19979 11.6756 5.19979C11.9076 5.19979 12.1302 5.10761 12.2942 4.94352C12.4583 4.77943 12.5505 4.55689 12.5505 4.32483C12.5505 4.09278 12.4583 3.87023 12.2942 3.70615C12.1302 3.54206 11.9076 3.44988 11.6756 3.44988Z" fill="white"/>
</svg>
