<svg width="16" height="17" viewBox="0 0 16 17" fill="none" xmlns="http://www.w3.org/2000/svg">
<path d="M9.28516 12.707C8.91976 13.2529 8.59273 13.7561 8.3457 14.1943C8.23747 14.386 7.99362 14.4538 7.80176 14.3457C7.76872 14.327 7.73941 14.3042 7.71387 14.2783L7.64941 14.1924C7.40174 13.7542 7.07457 13.2521 6.70996 12.707C6.06032 12.8208 5.50845 13.0157 5.11621 13.2607C4.74093 13.4955 4.54297 13.7545 4.54297 13.998C4.54297 14.1527 4.62098 14.3125 4.77539 14.4697C4.92966 14.6267 5.15593 14.7762 5.44043 14.9092C6.08423 15.2096 6.98782 15.3975 7.99805 15.3975C9.00825 15.3974 9.9124 15.2096 10.5557 14.9092C10.8401 14.7762 11.0665 14.6267 11.2207 14.4697C11.3751 14.3125 11.4531 14.1527 11.4531 13.998C11.4531 13.7551 11.2544 13.4962 10.8789 13.2607C10.4866 13.0151 9.93558 12.8208 9.28516 12.707ZM7.99805 2.76953C8.64747 2.76957 9.23644 3.03406 9.66406 3.46094L9.66602 3.46289C10.0924 3.88992 10.3564 4.48004 10.3564 5.12891C10.3564 5.77834 10.092 6.36792 9.66504 6.79492L9.66309 6.79688C9.2361 7.22311 8.64677 7.48726 7.99805 7.4873C7.34854 7.4873 6.75908 7.22292 6.33203 6.7959L6.33008 6.79395H6.3291C5.90304 6.367 5.6397 5.77747 5.63965 5.12891C5.63965 4.47938 5.90406 3.88894 6.33105 3.46191C6.75684 3.03482 7.34727 2.76953 7.99805 2.76953ZM7.99902 3.57227C7.56904 3.57227 7.17849 3.74728 6.89746 4.02832C6.6155 4.30851 6.44238 4.69822 6.44238 5.12891C6.44242 5.55958 6.61658 5.94924 6.89746 6.22949C7.17899 6.5116 7.56775 6.68549 7.99902 6.68555C8.42954 6.68555 8.81865 6.51126 9.09961 6.23047H9.10059C9.38273 5.9489 9.55566 5.55928 9.55566 5.12793C9.55561 4.70716 9.3888 4.3262 9.11914 4.04688L9.09961 4.02734C8.81881 3.746 8.42956 3.57238 7.99902 3.57227ZM3.73926 5.08691C3.73926 5.98195 4.16338 7.06189 4.77344 8.19043C5.3824 9.31693 6.17131 10.4815 6.8916 11.5449L7.21582 12.0264C7.22622 12.0397 7.23859 12.056 7.24805 12.0732H7.24707C7.51808 12.4762 7.77318 12.8613 7.99805 13.2217C8.22319 12.8615 8.47744 12.4758 8.74902 12.0723L8.78027 12.0264L9.10547 11.5449C9.82603 10.4815 10.6155 9.31695 11.2246 8.19043C11.8345 7.06233 12.2575 5.98271 12.2578 5.08789L12.251 4.87012C12.1874 3.79008 11.7193 2.8182 10.9971 2.10254C10.2286 1.34052 9.16915 0.869268 7.99902 0.869141C6.82882 0.869141 5.76857 1.34042 5 2.10254C4.2354 2.86085 3.7563 3.90611 3.73828 5.0625L3.73926 5.08398V5.08691ZM13.0596 5.08594C13.0601 6.11553 12.6072 7.29382 11.9727 8.48438C11.3379 9.67522 10.5164 10.8876 9.77051 11.9883C10.3703 12.125 10.896 12.3301 11.3027 12.584C11.8917 12.9525 12.2559 13.4392 12.2559 13.998C12.2559 14.6754 11.7199 15.2471 10.8945 15.6328C10.1434 15.9836 9.11857 16.1992 7.99902 16.1992C6.8793 16.1992 5.85388 15.9836 5.10254 15.6328C4.2772 15.2478 3.74122 14.6754 3.74121 13.998C3.74121 13.4392 4.10533 12.9525 4.69434 12.584C5.10048 12.3295 5.62687 12.125 6.22656 11.9883C5.48107 10.8877 4.66014 9.67506 4.02539 8.48438C3.39078 7.29392 2.93756 6.11582 2.9375 5.08594V5.08203L2.93945 5.04688C2.96129 3.67297 3.52979 2.43209 4.43652 1.5332C5.35167 0.626099 6.61107 0.0664485 7.99902 0.0664062C9.38696 0.0664062 10.6464 0.626157 11.5615 1.5332C12.476 2.43912 13.0469 3.69478 13.0596 5.08203V5.08594Z" fill="white" stroke="white" stroke-width="0.133333"/>
</svg>
