<svg width="16" height="16" viewBox="0 0 16 16" fill="none" xmlns="http://www.w3.org/2000/svg">
<path d="M15.2002 7.20021H9.60026C9.38752 7.20225 9.1823 7.11839 9.03229 6.96771C8.88161 6.8177 8.79773 6.61246 8.79979 6.39973V0.799792C8.79979 0.357969 8.44182 0 8 0C7.55818 0 7.20021 0.357969 7.20021 0.799792V6.39973C7.20225 6.61248 7.11839 6.8177 6.96771 6.96771C6.8177 7.11839 6.61246 7.20227 6.39973 7.20021H0.799792C0.357969 7.20021 0 7.55818 0 8C0 8.44182 0.357969 8.79979 0.799792 8.79979H6.39973C6.61248 8.79775 6.8177 8.88161 6.96771 9.03229C7.11839 9.1823 7.20227 9.38754 7.20021 9.60027V15.2002C7.20021 15.642 7.55818 16 8 16C8.44182 16 8.79979 15.642 8.79979 15.2002V9.60027C8.79775 9.38752 8.88161 9.1823 9.03229 9.03229C9.1823 8.88161 9.38754 8.79773 9.60026 8.79979H15.2002C15.642 8.79979 16 8.44182 16 8C16 7.55818 15.642 7.20021 15.2002 7.20021Z" fill="white"/>
</svg>
