<svg width="10" height="5" viewBox="0 0 10 7" fill="none" xmlns="http://www.w3.org/2000/svg">
<path d="M5.00323 3.72808L1.88183 0.263832C1.72339 0.0878107 1.52961 2.00584e-07 1.30052 1.70542e-07C1.07144 1.40503e-07 0.877757 0.0878354 0.719343 0.263832L0.237577 0.798362C0.0792079 0.974108 7.61994e-07 1.1892 7.28664e-07 1.44337C6.95333e-07 1.69754 0.0792077 1.91254 0.237577 2.08856L4.4187 6.73619C4.57714 6.91206 4.77089 7 5.00001 7C5.22913 7 5.42273 6.91209 5.58123 6.73619L9.76236 2.08859C9.92079 1.91256 10 1.69759 10 1.4434C10 1.18921 9.92079 0.974135 9.76236 0.798388L9.28068 0.263858C9.12233 0.087837 8.92966 2.54897e-05 8.70261 2.54599e-05C8.47574 2.54302e-05 8.28091 0.0878617 8.11822 0.263858L5.00323 3.72808Z" fill="currentColor"/>
</svg>
