<svg width="16" height="16" viewBox="0 0 16 16" fill="none" xmlns="http://www.w3.org/2000/svg">
<path d="M8.72727 2.54688C8.72727 2.14521 8.40166 1.8196 8 1.8196C7.59834 1.8196 7.27273 2.14521 7.27273 2.54687L8 2.54688L8.72727 2.54688ZM7.48574 13.9702C7.76976 14.2542 8.23024 14.2542 8.51426 13.9702L13.1426 9.34189C13.4266 9.05787 13.4266 8.59739 13.1426 8.31337C12.8586 8.02935 12.3981 8.02935 12.1141 8.31337L8 12.4274L3.88592 8.31337C3.60191 8.02935 3.14142 8.02935 2.85741 8.31337C2.57339 8.59739 2.57339 9.05787 2.85741 9.34189L7.48574 13.9702ZM8 2.54688L7.27273 2.54687L7.27273 13.456L8 13.456L8.72727 13.456L8.72727 2.54688L8 2.54688Z" fill="#408BFF"/>
</svg>
