<svg width="160" height="38" viewBox="0 0 160 38" fill="none" xmlns="http://www.w3.org/2000/svg">
<path d="M45.9126 8.58887H41.8173L46.8399 15.3072H50.9555L45.9126 8.58887ZM50.37 0.906016H46.2544L39.3771 7.03877V0.906016H35.8267V15.3072H39.3771V10.667L41.8173 8.58887L44.2779 6.41263L50.37 0.906016Z" fill="#060D16"/>
<path d="M51.6818 0.763166H55.09V3.1831H51.6818V0.763166ZM51.7021 4.77721H55.0528V15.3098H51.7021V4.77721Z" fill="#060D16"/>
<path d="M56.9885 4.77784H60.2782V6.39226C60.857 5.74581 61.4966 5.26182 62.1939 4.9403C62.8945 4.61538 63.6797 4.45631 64.5529 4.45631C65.9236 4.45631 66.9796 4.80492 67.7208 5.49536C68.4586 6.18919 68.8309 7.18086 68.8309 8.47036V15.3105H65.4802V9.09649C65.4802 8.38235 65.3076 7.86114 64.9658 7.53284C64.6239 7.20454 64.0757 7.0387 63.3209 7.0387C62.9181 7.0387 62.5222 7.11316 62.1295 7.26208C61.7403 7.411 61.4019 7.61746 61.121 7.88822C60.5964 8.37221 60.3324 8.94418 60.3324 9.60417V15.3139H56.9817V4.78122L56.9885 4.77784Z" fill="#060D16"/>
<path d="M79.5222 14.2974V13.2279C78.5678 14.3583 77.1666 14.9235 75.3254 14.9235C74.3033 14.9235 73.4064 14.7103 72.6313 14.2771C71.8563 13.8473 71.2539 13.2414 70.8172 12.4596C70.3806 11.6778 70.1607 10.7775 70.1607 9.75538C70.1607 8.73325 70.3874 7.82281 70.8376 7.02068C71.2877 6.22193 71.9274 5.59242 72.7532 5.13551C73.579 4.67859 74.5436 4.44845 75.6469 4.44845C76.5202 4.44845 77.2817 4.58721 77.9281 4.86136C78.5746 5.13551 79.133 5.55857 79.6034 6.1204V4.76997H82.8695V13.6273C82.8695 15.6444 82.3686 17.1167 81.3668 18.0441C80.365 18.9714 78.8013 19.4351 76.6759 19.4351C74.8076 19.4351 73.3793 19.144 72.3978 18.5585C71.4163 17.973 70.8375 17.0829 70.6616 15.8847H73.9107C74.0596 16.3417 74.3439 16.67 74.767 16.873C75.19 17.0727 75.8196 17.1742 76.6522 17.1742C77.6337 17.1742 78.3579 16.9407 78.8216 16.477C79.2853 16.0134 79.5188 15.2823 79.5188 14.2872L79.5222 14.2974ZM78.7133 7.64005C78.1616 7.1696 77.4509 6.93269 76.5743 6.93269C75.6199 6.93269 74.882 7.17298 74.3642 7.65697C73.8464 8.14095 73.5858 8.82125 73.5858 9.69446C73.5858 10.5677 73.8396 11.2513 74.3507 11.7421C74.8617 12.2328 75.5725 12.4799 76.4897 12.4799C77.4069 12.4799 78.0906 12.2464 78.6693 11.7725C79.2481 11.3021 79.5358 10.6692 79.5358 9.87721V9.576C79.5358 8.75694 79.2616 8.1105 78.7099 7.64005H78.7133Z" fill="#060D16"/>
<path d="M84.0814 10.1621C84.0814 9.04525 84.3048 8.06035 84.7481 7.20745C85.1915 6.35455 85.8244 5.68103 86.6435 5.19028C87.4625 4.69952 88.4373 4.45245 89.5677 4.45245C91.2498 4.45245 92.5393 5.00413 93.443 6.10748V0.902085H96.7903V15.3066H93.5005V13.7531C93.0165 14.3725 92.4107 14.8396 91.6864 15.1543C90.9587 15.4691 90.1464 15.6281 89.2462 15.6281C88.2105 15.6281 87.3068 15.4014 86.5318 14.9411C85.7601 14.4842 85.1577 13.8445 84.7278 13.0254C84.298 12.2064 84.0814 11.252 84.0814 10.1621ZM87.5099 10.0809C87.5099 11.0489 87.7604 11.7969 88.2579 12.3215C88.7554 12.8461 89.4763 13.1067 90.4172 13.1067C91.0095 13.1067 91.5341 12.9848 91.991 12.7445C92.4479 12.5008 92.8067 12.1692 93.0707 11.7461C93.3313 11.323 93.4633 10.8492 93.4633 10.3246V9.8203C93.4633 8.97417 93.1993 8.28711 92.6679 7.76251C92.1365 7.23791 91.4122 6.97731 90.4984 6.97731C89.5169 6.97731 88.7757 7.24129 88.268 7.77605C87.7637 8.30742 87.5099 9.07571 87.5099 10.0843V10.0809Z" fill="#060D16"/>
<path d="M98.2021 10.0808C98.2021 8.9098 98.4661 7.90459 98.9907 7.06523C99.5153 6.22587 100.263 5.57942 101.238 5.12928C102.213 4.67914 103.36 4.45238 104.677 4.45238C106.68 4.45238 108.237 4.93637 109.347 5.90434C110.457 6.87232 111.012 8.23628 111.012 9.99962C111.012 11.1571 110.748 12.1556 110.224 12.9949C109.699 13.8343 108.955 14.4841 107.983 14.941C107.015 15.3979 105.865 15.6281 104.535 15.6281C102.544 15.6281 100.991 15.1407 99.874 14.166C98.7571 13.1912 98.1987 11.8306 98.1987 10.0808H98.2021ZM101.631 10.0402C101.631 11.0217 101.884 11.7799 102.395 12.3112C102.907 12.8426 103.641 13.1066 104.595 13.1066C105.55 13.1066 106.308 12.8426 106.826 12.3112C107.344 11.7799 107.601 11.0251 107.601 10.0402C107.601 9.05533 107.34 8.28366 106.826 7.74891C106.308 7.21754 105.57 6.95355 104.616 6.95355C103.661 6.95355 102.923 7.21754 102.406 7.74891C101.888 8.28028 101.631 9.04518 101.631 10.0402Z" fill="#060D16"/>
<path d="M112.423 4.77784H115.713V6.39226C116.224 5.77289 116.803 5.29567 117.449 4.9606C118.096 4.62553 118.82 4.45631 119.629 4.45631C121.416 4.45631 122.601 5.12983 123.179 6.47348C124.269 5.12983 125.681 4.45631 127.417 4.45631C128.679 4.45631 129.657 4.80492 130.341 5.49536C131.028 6.18919 131.37 7.18086 131.37 8.47036V15.3105H128.002V9.03557C128.002 8.33497 127.86 7.82729 127.579 7.51253C127.295 7.19777 126.831 7.0387 126.188 7.0387C125.474 7.0387 124.838 7.29931 124.273 7.82391C123.802 8.25375 123.565 8.76481 123.565 9.3571V15.3071H120.215V9.03218C120.215 8.33158 120.069 7.82391 119.781 7.50915C119.494 7.19439 119.033 7.03532 118.4 7.03532C117.663 7.03532 117.023 7.31961 116.485 7.88145C116.014 8.32482 115.777 8.8765 115.777 9.53648V15.3071H112.427V4.77446L112.423 4.77784Z" fill="#060D16"/>
<path d="M52.5633 26.6622C52.5633 25.1967 52.878 23.8937 53.5109 22.7599C54.1438 21.6227 55.0644 20.7292 56.2761 20.076C57.4877 19.4227 58.96 19.0978 60.6929 19.0978C64.7272 19.0978 67.1742 20.7664 68.0373 24.1002L64.5276 24.5029C64.2196 23.6297 63.7627 22.9968 63.1568 22.6076C62.551 22.2184 61.7319 22.0221 60.6963 22.0221C59.312 22.0221 58.2256 22.4248 57.437 23.2337C56.6484 24.0426 56.2558 25.1832 56.2558 26.6622C56.2558 28.1413 56.6484 29.2852 57.437 30.0908C58.2222 30.8963 59.3289 31.3024 60.7538 31.3024C63.0011 31.3024 64.3177 30.4428 64.7069 28.72H68.2776C68.0745 30.4664 67.313 31.8236 65.9863 32.7848C64.6629 33.746 62.8962 34.2266 60.6895 34.2266C58.9397 34.2266 57.4607 33.9051 56.2524 33.2688C55.0407 32.6292 54.1235 31.7424 53.4974 30.6052C52.8713 29.468 52.5599 28.1548 52.5599 26.6622H52.5633Z" fill="#060D16"/>
<path d="M69.0055 28.6383C69.0055 27.4673 69.2695 26.4621 69.7907 25.6227C70.3153 24.7833 71.0633 24.1369 72.0414 23.6867C73.0162 23.2366 74.1635 23.0098 75.4801 23.0098C77.4837 23.0098 79.0406 23.4938 80.1507 24.4618C81.2609 25.4298 81.8159 26.7937 81.8159 28.5571C81.8159 29.7146 81.5519 30.713 81.0273 31.5524C80.5027 32.3917 79.7581 33.0416 78.7868 33.4985C77.8188 33.9554 76.6681 34.1855 75.338 34.1855C73.3479 34.1855 71.7943 33.6982 70.6775 32.7234C69.5606 31.7487 69.0021 30.3881 69.0021 28.6383H69.0055ZM72.4374 28.5977C72.4374 29.5792 72.6913 30.3373 73.2023 30.8687C73.7134 31.4001 74.4478 31.6641 75.4023 31.6641C76.3567 31.6641 77.1148 31.4001 77.6327 30.8687C78.1505 30.3373 78.4077 29.5826 78.4077 28.5977C78.4077 27.6128 78.1471 26.8411 77.6327 26.3064C77.1148 25.775 76.377 25.511 75.4226 25.511C74.4681 25.511 73.7303 25.775 73.2125 26.3064C72.6946 26.8377 72.4374 27.6026 72.4374 28.5977Z" fill="#060D16"/>
<path d="M83.2269 23.3353H86.5166V24.9497C87.0277 24.3304 87.6065 23.8531 88.2529 23.5181C88.8993 23.183 89.6236 23.0138 90.4325 23.0138C92.2196 23.0138 93.4041 23.6873 93.9829 25.031C95.0727 23.6873 96.4841 23.0138 98.2203 23.0138C99.4827 23.0138 100.461 23.3624 101.145 24.0528C101.832 24.7467 102.173 25.7383 102.173 27.0278V33.8679H98.8058V27.593C98.8058 26.8924 98.6637 26.3848 98.3828 26.07C98.0985 25.7552 97.6348 25.5962 96.9917 25.5962C96.2776 25.5962 95.6413 25.8568 95.0761 26.3814C94.6057 26.8112 94.3687 27.3223 94.3687 27.9146V33.8646H91.0181V27.5897C91.0181 26.8891 90.8725 26.3814 90.5848 26.0666C90.2971 25.7519 89.8368 25.5928 89.2039 25.5928C88.4661 25.5928 87.8265 25.8771 87.2883 26.4389C86.8179 26.8823 86.5809 27.434 86.5809 28.0939V33.8646H83.2303V23.3319L83.2269 23.3353Z" fill="#060D16"/>
<path d="M104.028 23.3353H107.318V24.8888C107.802 24.2694 108.408 23.8024 109.135 23.4876C109.86 23.1729 110.675 23.0138 111.576 23.0138C112.611 23.0138 113.511 23.2439 114.28 23.7008C115.045 24.1578 115.644 24.794 116.077 25.6063C116.507 26.4186 116.723 27.3798 116.723 28.4798C116.723 29.5798 116.5 30.5646 116.057 31.4243C115.613 32.284 114.98 32.9609 114.161 33.4516C113.339 33.9424 112.371 34.1861 111.257 34.1861C109.562 34.1861 108.272 33.6276 107.382 32.5108V37.7771H104.031V23.3319L104.028 23.3353ZM113.308 28.561C113.308 27.593 113.058 26.8451 112.554 26.3205C112.049 25.7959 111.332 25.5352 110.404 25.5352C109.477 25.5352 108.787 25.7992 108.215 26.3205C107.643 26.8451 107.358 27.505 107.358 28.297V28.8013C107.358 29.6474 107.622 30.3379 108.154 30.8693C108.685 31.4006 109.403 31.6646 110.303 31.6646C111.298 31.6646 112.049 31.4006 112.554 30.8693C113.058 30.3379 113.308 29.5696 113.308 28.561Z" fill="#060D16"/>
<path d="M117.485 30.92C117.485 29.7761 117.976 28.9198 118.957 28.3478C119.939 27.7758 121.465 27.4644 123.536 27.4103L126.017 27.3494V26.9466C126.017 25.762 125.242 25.1697 123.699 25.1697C122.274 25.1697 121.418 25.5589 121.137 26.3408L118.131 26.1005C118.548 24.0427 120.446 23.0138 123.821 23.0138C127.398 23.0138 129.185 24.4116 129.185 27.2106V33.8679H126.119V32.4769C125.526 33.0692 124.883 33.4956 124.193 33.7596C123.499 34.0202 122.704 34.1522 121.803 34.1522C120.419 34.1522 119.353 33.8713 118.605 33.3163C117.857 32.7578 117.485 31.9625 117.485 30.9268V30.92ZM120.67 30.6763C120.67 31.536 121.357 31.9692 122.727 31.9692C123.293 31.9692 123.824 31.8778 124.322 31.6985C124.819 31.5157 125.225 31.2585 125.543 30.9234C125.858 30.5883 126.017 30.1754 126.017 29.6914V29.1871L123.736 29.2481C122.673 29.2751 121.898 29.4038 121.407 29.6305C120.917 29.8573 120.67 30.2093 120.67 30.6797V30.6763Z" fill="#060D16"/>
<path d="M131.039 23.3353H134.329V24.9497C134.908 24.3033 135.548 23.8193 136.245 23.4978C136.945 23.1729 137.731 23.0138 138.604 23.0138C139.974 23.0138 141.03 23.3624 141.772 24.0528C142.513 24.7467 142.882 25.7383 142.882 27.0278V33.8679H139.531V27.654C139.531 26.9398 139.358 26.4186 139.017 26.0903C138.675 25.762 138.127 25.5962 137.372 25.5962C136.969 25.5962 136.573 25.6706 136.18 25.8195C135.791 25.9685 135.456 26.1749 135.172 26.4457C134.647 26.9297 134.387 27.5017 134.387 28.1616V33.8713H131.036V23.3387L131.039 23.3353Z" fill="#060D16"/>
<path d="M152.662 23.3349L149.799 30.2359L147.782 34.0672C147.524 34.5918 147.244 34.9607 146.932 35.1773C146.624 35.3905 146.228 35.4988 145.744 35.4988C145.487 35.4988 145.243 35.4819 145.006 35.4481C144.773 35.4142 144.526 35.3601 144.272 35.2788L143.788 37.5566C144.231 37.7191 144.648 37.8342 145.037 37.9018C145.426 37.9662 145.859 38 146.33 38C147.04 38 147.646 37.8985 148.144 37.6886C148.641 37.4788 149.095 37.1133 149.504 36.5886C149.914 36.064 150.344 35.3465 150.787 34.4293L156.172 23.3349H152.662ZM143.02 23.3349L146.648 30.2359H149.799L146.672 23.3349H143.02Z" fill="#060D16"/>
<path d="M47.8405 33.9416L46.1888 32.3983C44.7842 33.5896 43.0649 34.1887 41.0409 34.1887C39.924 34.1887 38.9459 34.0093 38.0964 33.6438C37.2469 33.2817 36.5937 32.7672 36.13 32.1005C35.6663 31.4371 35.4362 30.662 35.4362 29.7854C35.4362 28.8344 35.7171 27.9849 36.2823 27.2301C36.8475 26.4754 37.6801 25.8662 38.7801 25.3991C38.3875 24.9456 38.1066 24.5124 37.9306 24.0893C37.758 23.6696 37.67 23.2229 37.67 22.7423C37.67 22.0823 37.8493 21.49 38.2115 20.962C38.5736 20.434 39.0915 20.0177 39.765 19.7165C40.4385 19.4153 41.2237 19.263 42.124 19.263C43.0243 19.263 43.8196 19.4254 44.4695 19.7571C45.1227 20.0888 45.6067 20.5254 45.9248 21.0737C46.243 21.622 46.3817 22.2346 46.3377 22.9047H43.383C43.3966 22.4512 43.2815 22.106 43.0344 21.8657C42.7874 21.6254 42.4557 21.5035 42.036 21.5035C41.6163 21.5035 41.2948 21.6152 41.024 21.842C40.7566 22.0687 40.6213 22.3632 40.6213 22.7186C40.6213 23.0739 40.7296 23.4022 40.9462 23.7407C41.1628 24.0758 41.5182 24.4887 42.0123 24.9828L45.8368 28.567C45.8639 28.5399 45.8876 28.5095 45.9011 28.4858C45.9146 28.4587 45.9316 28.4283 45.9451 28.4012L47.1839 26.4449H50.3552L48.8355 28.9765C48.5478 29.5147 48.2331 30.0224 47.9014 30.4996L51.5736 33.9383H47.8371L47.8405 33.9416ZM44.2765 30.6045L40.54 27.1049C39.1355 27.6938 38.4315 28.5332 38.4315 29.6162C38.4315 30.2356 38.6786 30.7534 39.1727 31.1697C39.6635 31.5894 40.3167 31.7959 41.1289 31.7959C42.3169 31.7959 43.3661 31.3999 44.2799 30.6045H44.2765Z" fill="#060D16"/>
<path d="M25.5847 5.45379V0.854227C25.5847 0.366856 25.1751 -0.0257549 24.6878 0.00132123C15.9726 0.454847 8.97342 7.49127 8.57404 16.22V1.57174C8.57404 1.1013 8.19159 0.718838 7.72115 0.718838H1.09763C0.532418 0.718838 0.285346 1.42959 0.725334 1.78158L1.96068 2.76986C2.16375 2.93231 2.27883 3.176 2.27883 3.43661V30.4045C2.27883 30.6617 2.16037 30.9088 1.96068 31.0712L0.728722 32.0595C0.288734 32.4115 0.539184 33.1223 1.1044 33.1223L7.70761 33.1155C8.17805 33.1155 8.5605 32.733 8.5605 32.2626L8.57743 17.8005C8.9768 26.5292 15.976 33.5622 24.6911 34.0192C25.1785 34.0429 25.588 33.6536 25.588 33.1663V28.5667C25.588 28.1165 25.2394 27.751 24.7927 27.7172C19.2454 27.3077 14.8557 22.6641 14.8557 17.0119C14.8557 11.3598 19.2454 6.71622 24.7927 6.30669C25.2394 6.27284 25.588 5.90731 25.588 5.45717L25.5847 5.45379Z" fill="#408BFF"/>
</svg>
