<svg width="143" height="34" viewBox="0 0 143 34" fill="none" xmlns="http://www.w3.org/2000/svg">
<path d="M41.0328 7.68478H37.3727L41.8616 13.6959H45.54L41.0328 7.68478ZM45.0166 0.810646H41.3383L35.1917 6.29784V0.810646H32.0186V13.6959H35.1917V9.54414L37.3727 7.68478L39.5718 5.73762L45.0166 0.810646Z" fill="white"/>
<path d="M46.1891 0.682832H49.2352V2.84803H46.1891V0.682832ZM46.2072 4.27435H49.2019V13.6983H46.2072V4.27435Z" fill="white"/>
<path d="M50.9319 4.27491H53.8721V5.71939C54.3894 5.14099 54.9611 4.70795 55.5842 4.42026C56.2104 4.12955 56.9121 3.98723 57.6926 3.98723C58.9177 3.98723 59.8614 4.29914 60.5239 4.9169C61.1833 5.53769 61.5161 6.42498 61.5161 7.57874V13.6988H58.5214V8.13896C58.5214 7.5 58.3671 7.03365 58.0616 6.73991C57.7561 6.44617 57.2661 6.29779 56.5915 6.29779C56.2315 6.29779 55.8776 6.36441 55.5267 6.49765C55.1789 6.6309 54.8764 6.81562 54.6253 7.05788C54.1564 7.49092 53.9205 8.00269 53.9205 8.5932V13.7019H50.9258V4.27794L50.9319 4.27491Z" fill="white"/>
<path d="M71.0714 12.7924V11.8355C70.2184 12.8469 68.9661 13.3526 67.3205 13.3526C66.407 13.3526 65.6054 13.1619 64.9127 12.7742C64.22 12.3897 63.6816 11.8476 63.2914 11.1481C62.9011 10.4485 62.7045 9.64303 62.7045 8.72849C62.7045 7.81396 62.9072 6.99935 63.3095 6.28166C63.7118 5.56699 64.2835 5.00374 65.0216 4.59493C65.7597 4.18611 66.6218 3.98019 67.6079 3.98019C68.3883 3.98019 69.0689 4.10435 69.6467 4.34964C70.2244 4.59493 70.7236 4.97346 71.144 5.47615V4.26787H74.0631V12.1928C74.0631 13.9977 73.6154 15.3149 72.72 16.1447C71.8246 16.9744 70.4271 17.3893 68.5275 17.3893C66.8577 17.3893 65.5812 17.1289 64.704 16.605C63.8268 16.0811 63.3095 15.2847 63.1522 14.2127H66.0561C66.1892 14.6215 66.4433 14.9152 66.8214 15.0969C67.1995 15.2756 67.7622 15.3664 68.5063 15.3664C69.3835 15.3664 70.0309 15.1575 70.4453 14.7426C70.8597 14.3277 71.0684 13.6736 71.0684 12.7833L71.0714 12.7924ZM70.3485 6.83583C69.8554 6.41491 69.2202 6.20293 68.4367 6.20293C67.5837 6.20293 66.9243 6.41793 66.4615 6.85097C65.9986 7.28401 65.7657 7.8927 65.7657 8.67399C65.7657 9.45528 65.9926 10.067 66.4493 10.5061C66.9061 10.9452 67.5414 11.1662 68.3611 11.1662C69.1809 11.1662 69.7919 10.9573 70.3092 10.5333C70.8264 10.1124 71.0835 9.54612 71.0835 8.83751V8.568C71.0835 7.83516 70.8385 7.25676 70.3454 6.83583H70.3485Z" fill="white"/>
<path d="M75.1462 9.09244C75.1462 8.09312 75.3458 7.21189 75.7421 6.44877C76.1384 5.68565 76.704 5.08303 77.436 4.64393C78.1681 4.20484 79.0392 3.98377 80.0496 3.98377C81.5529 3.98377 82.7054 4.47738 83.5131 5.46459V0.807128H86.5047V13.6954H83.5645V12.3054C83.132 12.8596 82.5905 13.2775 81.9432 13.5591C81.2928 13.8407 80.5668 13.9831 79.7622 13.9831C78.8366 13.9831 78.0289 13.7802 77.3362 13.3683C76.6465 12.9595 76.1081 12.3872 75.7239 11.6543C75.3398 10.9215 75.1462 10.0675 75.1462 9.09244ZM78.2104 9.01976C78.2104 9.88584 78.4343 10.5551 78.8789 11.0245C79.3236 11.4938 79.9679 11.727 80.8088 11.727C81.3382 11.727 81.807 11.618 82.2154 11.403C82.6238 11.185 82.9444 10.8882 83.1804 10.5097C83.4133 10.1311 83.5312 9.70717 83.5312 9.23779V8.78659C83.5312 8.02952 83.2953 7.41478 82.8204 6.9454C82.3455 6.47602 81.6981 6.24285 80.8814 6.24285C80.0042 6.24285 79.3417 6.47905 78.888 6.95752C78.4373 7.43295 78.2104 8.12037 78.2104 9.02279V9.01976Z" fill="white"/>
<path d="M87.7665 9.0197C87.7665 7.97192 88.0025 7.07253 88.4713 6.32152C88.9402 5.57051 89.6087 4.99212 90.4799 4.58936C91.3511 4.1866 92.3765 3.98371 93.5532 3.98371C95.344 3.98371 96.7354 4.41675 97.7276 5.28283C98.7197 6.14891 99.2158 7.3693 99.2158 8.94702C99.2158 9.98269 98.9799 10.876 98.511 11.627C98.0422 12.378 97.3767 12.9595 96.5086 13.3683C95.6434 13.7771 94.615 13.983 93.4262 13.983C91.6475 13.983 90.2591 13.5469 89.2608 12.6748C88.2626 11.8027 87.7635 10.5853 87.7635 9.0197H87.7665ZM90.8308 8.98336C90.8308 9.86156 91.0576 10.5399 91.5144 11.0153C91.9712 11.4908 92.6276 11.727 93.4806 11.727C94.3336 11.727 95.0112 11.4908 95.474 11.0153C95.9368 10.5399 96.1667 9.86458 96.1667 8.98336C96.1667 8.10214 95.9338 7.4117 95.474 6.93324C95.0112 6.4578 94.3518 6.22159 93.4988 6.22159C92.6457 6.22159 91.9863 6.4578 91.5235 6.93324C91.0607 7.40867 90.8308 8.09305 90.8308 8.98336Z" fill="white"/>
<path d="M100.477 4.27491H103.417V5.71939C103.874 5.16522 104.391 4.73823 104.969 4.43843C105.547 4.13864 106.194 3.98723 106.917 3.98723C108.514 3.98723 109.573 4.58985 110.09 5.79206C111.064 4.58985 112.325 3.98723 113.877 3.98723C115.006 3.98723 115.88 4.29914 116.491 4.9169C117.105 5.53769 117.41 6.42498 117.41 7.57874V13.6988H114.401V8.08446C114.401 7.45761 114.274 7.00337 114.022 6.72174C113.768 6.44011 113.354 6.29779 112.779 6.29779C112.141 6.29779 111.572 6.53096 111.067 7.00034C110.647 7.38493 110.435 7.8422 110.435 8.37214V13.6958H107.44V8.08142C107.44 7.45458 107.31 7.00034 107.053 6.71871C106.796 6.43708 106.385 6.29475 105.819 6.29475C105.159 6.29475 104.588 6.54913 104.107 7.05182C103.686 7.44852 103.475 7.94213 103.475 8.53264V13.6958H100.48V4.27188L100.477 4.27491Z" fill="white"/>
<path d="M46.9769 23.8557C46.9769 22.5445 47.2582 21.3786 47.8238 20.3641C48.3895 19.3466 49.2123 18.5472 50.2952 17.9627C51.3781 17.3782 52.694 17.0875 54.2427 17.0875C57.8484 17.0875 60.0354 18.5805 60.8068 21.5633L57.6699 21.9237C57.3947 21.1424 56.9863 20.5761 56.4449 20.2278C55.9034 19.8796 55.1714 19.7039 54.2457 19.7039C53.0085 19.7039 52.0375 20.0643 51.3327 20.7881C50.6279 21.5118 50.277 22.5323 50.277 23.8557C50.277 25.179 50.6279 26.2026 51.3327 26.9233C52.0345 27.644 53.0237 28.0074 54.2972 28.0074C56.3057 28.0074 57.4824 27.2383 57.8303 25.6969H61.0216C60.8401 27.2594 60.1595 28.4738 58.9737 29.3338C57.7909 30.1938 56.2119 30.6238 54.2397 30.6238C52.6758 30.6238 51.3539 30.3362 50.274 29.7668C49.1911 29.1945 48.3713 28.4011 47.8117 27.3836C47.2521 26.3661 46.9738 25.1912 46.9738 23.8557H46.9769Z" fill="white"/>
<path d="M61.6721 25.6237C61.6721 24.576 61.9081 23.6766 62.3739 22.9256C62.8428 22.1746 63.5113 21.5962 64.3855 21.1934C65.2566 20.7906 66.2821 20.5878 67.4588 20.5878C69.2495 20.5878 70.641 21.0208 71.6332 21.8869C72.6253 22.753 73.1214 23.9733 73.1214 25.5511C73.1214 26.5867 72.8855 27.4801 72.4166 28.2311C71.9478 28.9821 71.2823 29.5635 70.4141 29.9723C69.549 30.3811 68.5205 30.5871 67.3317 30.5871C65.5531 30.5871 64.1646 30.151 63.1664 29.2788C62.1682 28.4067 61.6691 27.1894 61.6691 25.6237H61.6721ZM64.7394 25.5874C64.7394 26.4656 64.9663 27.1439 65.423 27.6194C65.8798 28.0948 66.5362 28.331 67.3892 28.331C68.2422 28.331 68.9198 28.0948 69.3826 27.6194C69.8454 27.1439 70.0753 26.4686 70.0753 25.5874C70.0753 24.7062 69.8424 24.0157 69.3826 23.5373C68.9198 23.0618 68.2604 22.8256 67.4074 22.8256C66.5543 22.8256 65.8949 23.0618 65.4321 23.5373C64.9693 24.0127 64.7394 24.6971 64.7394 25.5874Z" fill="white"/>
<path d="M74.3825 20.879H77.3227V22.3234C77.7794 21.7693 78.2967 21.3423 78.8745 21.0425C79.4522 20.7427 80.0996 20.5913 80.8225 20.5913C82.4197 20.5913 83.4784 21.1939 83.9956 22.3961C84.9697 21.1939 86.2311 20.5913 87.7829 20.5913C88.9111 20.5913 89.7854 20.9032 90.3964 21.5209C91.0104 22.1417 91.3159 23.029 91.3159 24.1828V30.3029H88.3062V24.6885C88.3062 24.0617 88.1791 23.6074 87.928 23.3258C87.674 23.0442 87.2595 22.9018 86.6848 22.9018C86.0465 22.9018 85.4779 23.135 84.9727 23.6044C84.5522 23.989 84.3405 24.4462 84.3405 24.9762V30.2999H81.3458V24.6855C81.3458 24.0586 81.2158 23.6044 80.9586 23.3228C80.7015 23.0411 80.2901 22.8988 79.7245 22.8988C79.065 22.8988 78.4933 23.1532 78.0124 23.6559C77.5919 24.0526 77.3802 24.5462 77.3802 25.1367V30.2999H74.3855V20.8759L74.3825 20.879Z" fill="white"/>
<path d="M92.9735 20.879H95.9137V22.2689C96.3463 21.7148 96.8877 21.2969 97.5381 21.0152C98.1854 20.7336 98.9144 20.5913 99.719 20.5913C100.645 20.5913 101.449 20.7972 102.136 21.206C102.82 21.6148 103.355 22.1841 103.742 22.9109C104.126 23.6377 104.32 24.4977 104.32 25.4819C104.32 26.4661 104.12 27.3473 103.724 28.1165C103.328 28.8857 102.762 29.4913 102.03 29.9304C101.295 30.3695 100.43 30.5875 99.4347 30.5875C97.9192 30.5875 96.7667 30.0879 95.9712 29.0886V33.8005H92.9765V20.8759L92.9735 20.879ZM101.268 25.5546C101.268 24.6885 101.044 24.0193 100.593 23.5499C100.143 23.0805 99.5012 22.8473 98.6724 22.8473C97.8436 22.8473 97.2265 23.0835 96.7153 23.5499C96.2041 24.0193 95.95 24.6098 95.95 25.3184V25.7696C95.95 26.5267 96.186 27.1444 96.6609 27.6199C97.1358 28.0953 97.7771 28.3315 98.5817 28.3315C99.471 28.3315 100.143 28.0953 100.593 27.6199C101.044 27.1444 101.268 26.457 101.268 25.5546Z" fill="white"/>
<path d="M105 27.6653C105 26.6417 105.439 25.8756 106.316 25.3638C107.194 24.852 108.558 24.5734 110.409 24.525L112.626 24.4705V24.1101C112.626 23.0502 111.934 22.5203 110.554 22.5203C109.281 22.5203 108.515 22.8685 108.264 23.5681L105.578 23.353C105.95 21.5119 107.647 20.5913 110.663 20.5913C113.86 20.5913 115.458 21.8419 115.458 24.3463V30.3029H112.717V29.0583C112.188 29.5882 111.613 29.9698 110.996 30.206C110.376 30.4392 109.665 30.5573 108.86 30.5573C107.623 30.5573 106.67 30.3059 106.002 29.8093C105.333 29.3096 105 28.598 105 27.6713V27.6653ZM107.847 27.4472C107.847 28.2164 108.461 28.604 109.686 28.604C110.191 28.604 110.666 28.5223 111.111 28.3618C111.555 28.1983 111.918 27.9681 112.203 27.6683C112.484 27.3685 112.626 26.9991 112.626 26.566V26.1148L110.588 26.1693C109.638 26.1935 108.945 26.3086 108.506 26.5115C108.068 26.7144 107.847 27.0294 107.847 27.4503V27.4472Z" fill="white"/>
<path d="M117.115 20.879H120.055V22.3234C120.572 21.745 121.144 21.312 121.767 21.0243C122.393 20.7336 123.095 20.5913 123.876 20.5913C125.101 20.5913 126.044 20.9032 126.707 21.5209C127.369 22.1417 127.699 23.029 127.699 24.1828V30.3029H124.704V24.743C124.704 24.1041 124.55 23.6377 124.245 23.344C123.939 23.0502 123.449 22.9018 122.774 22.9018C122.414 22.9018 122.061 22.9685 121.71 23.1017C121.362 23.2349 121.062 23.4197 120.808 23.6619C120.339 24.095 120.106 24.6067 120.106 25.1973V30.3059H117.112V20.882L117.115 20.879Z" fill="white"/>
<path d="M136.44 20.8786L133.881 27.0532L132.078 30.4812C131.848 30.9505 131.597 31.2806 131.319 31.4744C131.044 31.6652 130.69 31.7621 130.257 31.7621C130.027 31.7621 129.81 31.747 129.598 31.7167C129.389 31.6864 129.168 31.638 128.941 31.5653L128.509 33.6033C128.905 33.7486 129.277 33.8516 129.625 33.9122C129.973 33.9697 130.36 34 130.781 34C131.416 34 131.957 33.9091 132.402 33.7214C132.847 33.5336 133.252 33.2066 133.618 32.7372C133.984 32.2678 134.368 31.6258 134.764 30.8052L139.577 20.8786H136.44ZM127.822 20.8786L131.065 27.0532H133.881L131.086 20.8786H127.822Z" fill="white"/>
<path d="M42.7558 30.3688L41.2797 28.9879C40.0243 30.0539 38.4877 30.5899 36.6788 30.5899C35.6806 30.5899 34.8064 30.4294 34.0471 30.1023C33.2878 29.7783 32.704 29.318 32.2896 28.7215C31.8752 28.1279 31.6695 27.4345 31.6695 26.6501C31.6695 25.7992 31.9206 25.0391 32.4257 24.3638C32.9309 23.6885 33.675 23.1434 34.6581 22.7255C34.3072 22.3197 34.0562 21.9321 33.8989 21.5536C33.7446 21.1781 33.666 20.7783 33.666 20.3483C33.666 19.7578 33.8263 19.2279 34.15 18.7555C34.4736 18.2831 34.9364 17.9106 35.5384 17.6411C36.1404 17.3716 36.8421 17.2353 37.6468 17.2353C38.4514 17.2353 39.1622 17.3806 39.743 17.6774C40.3268 17.9742 40.7594 18.3648 41.0437 18.8554C41.3281 19.346 41.4521 19.8941 41.4128 20.4937H38.772C38.7841 20.0879 38.6813 19.779 38.4605 19.564C38.2396 19.349 37.9432 19.24 37.5681 19.24C37.193 19.24 36.9057 19.3399 36.6637 19.5428C36.4247 19.7457 36.3037 20.0092 36.3037 20.3271C36.3037 20.6451 36.4005 20.9388 36.5941 21.2417C36.7877 21.5415 37.1053 21.9109 37.5469 22.353L40.9651 25.56C40.9893 25.5357 41.0105 25.5085 41.0226 25.4873C41.0347 25.4631 41.0498 25.4358 41.0619 25.4116L42.169 23.6612H45.0034L43.6452 25.9264C43.3881 26.4079 43.1067 26.8621 42.8103 27.2891L46.0923 30.3658H42.7528L42.7558 30.3688ZM39.5706 27.383L36.2311 24.2518C34.9758 24.7787 34.3466 25.5297 34.3466 26.4987C34.3466 27.0529 34.5674 27.5162 35.009 27.8887C35.4477 28.2642 36.0315 28.4489 36.7574 28.4489C37.8192 28.4489 38.7569 28.0946 39.5736 27.383H39.5706Z" fill="white"/>
<path d="M22.8647 4.87971V0.764309C22.8647 0.32824 22.4987 -0.0230439 22.0631 0.00118216C14.274 0.406969 8.01843 6.70272 7.66149 14.5126V1.4063C7.66149 0.98537 7.31968 0.643171 6.89921 0.643171H0.979448C0.474287 0.643171 0.253466 1.27911 0.646705 1.59405L1.7508 2.47829C1.93229 2.62365 2.03514 2.84168 2.03514 3.07486V27.204C2.03514 27.4342 1.92927 27.6552 1.7508 27.8006L0.649733 28.6848C0.256494 28.9998 0.480333 29.6357 0.985494 29.6357L6.88711 29.6296C7.30757 29.6296 7.64939 29.2875 7.64939 28.8665L7.66452 15.9268C8.02146 23.7367 14.277 30.0294 22.0661 30.4382C22.5017 30.4594 22.8678 30.1111 22.8678 29.6751V25.5597C22.8678 25.1569 22.5562 24.8299 22.1569 24.7996C17.1991 24.4332 13.2757 20.2784 13.2757 15.2212C13.2757 10.164 17.1991 6.00924 22.1569 5.64283C22.5562 5.61254 22.8678 5.28549 22.8678 4.88273L22.8647 4.87971Z" fill="#408BFF"/>
</svg>
