<svg width="86" height="53" viewBox="0 0 86 53" fill="none" xmlns="http://www.w3.org/2000/svg">
<ellipse opacity="0.3" cx="44.8311" cy="46.2908" rx="32.3037" ry="6.7088" fill="#F26A00"/>
<path d="M31.5055 10.4427C38.4842 1.35244 52.3785 1.35244 59.3571 10.4427C64.5951 17.2656 63.916 26.8372 57.7653 32.8802L45.4313 44.9981L33.0974 32.8802C26.9466 26.8372 26.2676 17.2656 31.5055 10.4427Z" fill="#F26A00"/>
<rect width="86" height="36" rx="4" fill="#F26A00"/>
<path d="M29.2532 13.6162H27.517L29.6464 16.4449H31.3913L29.2532 13.6162ZM31.143 10.3812H29.3982L26.4824 12.9635V10.3812H24.9772V16.4449H26.4824V14.4912L27.517 13.6162L28.5602 12.6998L31.143 10.3812Z" fill="white"/>
<path d="M31.7 10.3214H33.1449V11.3403H31.7V10.3214ZM31.7086 12.0115H33.1292V16.4464H31.7086V12.0115Z" fill="white"/>
<path d="M33.9499 12.0116H35.3447V12.6913C35.59 12.4191 35.8612 12.2153 36.1568 12.08C36.4538 11.9431 36.7867 11.8762 37.157 11.8762C37.7381 11.8762 38.1858 12.023 38.5 12.3137C38.8128 12.6058 38.9707 13.0234 38.9707 13.5663V16.4464H37.5501V13.8299C37.5501 13.5293 37.4769 13.3098 37.332 13.1716C37.1871 13.0333 36.9546 12.9635 36.6346 12.9635C36.4639 12.9635 36.296 12.9949 36.1296 13.0576C35.9645 13.1203 35.8211 13.2072 35.702 13.3212C35.4795 13.525 35.3676 13.7658 35.3676 14.0437V16.4478H33.9471V12.013L33.9499 12.0116Z" fill="white"/>
<path d="M43.5037 16.0204V15.57C43.0991 16.046 42.505 16.284 41.7245 16.284C41.2911 16.284 40.9109 16.1942 40.5823 16.0118C40.2537 15.8308 39.9983 15.5757 39.8132 15.2465C39.6281 14.9173 39.5348 14.5383 39.5348 14.1079C39.5348 13.6775 39.6309 13.2942 39.8218 12.9564C40.0126 12.6201 40.2838 12.3551 40.6339 12.1627C40.9841 11.9703 41.393 11.8734 41.8608 11.8734C42.231 11.8734 42.5538 11.9318 42.8279 12.0472C43.102 12.1627 43.3387 12.3408 43.5382 12.5774V12.0088H44.9229V15.7382C44.9229 16.5875 44.7105 17.2074 44.2858 17.5979C43.861 17.9884 43.1981 18.1836 42.297 18.1836C41.5049 18.1836 40.8994 18.0611 40.4833 17.8145C40.0671 17.568 39.8218 17.1932 39.7472 16.6887H41.1247C41.1878 16.8811 41.3083 17.0193 41.4877 17.1048C41.6671 17.1889 41.934 17.2317 42.2869 17.2317C42.7031 17.2317 43.0101 17.1333 43.2067 16.9381C43.4033 16.7429 43.5023 16.4351 43.5023 16.0161L43.5037 16.0204ZM43.1608 13.2172C42.9269 13.0191 42.6256 12.9194 42.2539 12.9194C41.8493 12.9194 41.5365 13.0206 41.3169 13.2244C41.0974 13.4281 40.9869 13.7146 40.9869 14.0823C40.9869 14.4499 41.0945 14.7378 41.3112 14.9444C41.5279 15.1511 41.8292 15.2551 42.2181 15.2551C42.6069 15.2551 42.8968 15.1568 43.1421 14.9573C43.3875 14.7592 43.5095 14.4927 43.5095 14.1592V14.0324C43.5095 13.6875 43.3933 13.4153 43.1594 13.2172H43.1608Z" fill="white"/>
<path d="M45.4364 14.2789C45.4364 13.8086 45.5311 13.3939 45.7191 13.0348C45.9071 12.6756 46.1754 12.3921 46.5226 12.1854C46.8699 11.9788 47.2831 11.8747 47.7624 11.8747C48.4755 11.8747 49.0222 12.107 49.4054 12.5716V10.3798H50.8245V16.445H49.4298V15.7909C49.2246 16.0516 48.9677 16.2483 48.6606 16.3808C48.3521 16.5134 48.0078 16.5803 47.6261 16.5803C47.187 16.5803 46.8039 16.4849 46.4753 16.2911C46.1481 16.0987 45.8927 15.8293 45.7105 15.4845C45.5282 15.1396 45.4364 14.7377 45.4364 14.2789ZM46.89 14.2446C46.89 14.6522 46.9962 14.9672 47.2071 15.188C47.418 15.4089 47.7237 15.5187 48.1226 15.5187C48.3737 15.5187 48.5961 15.4674 48.7898 15.3662C48.9835 15.2636 49.1356 15.1239 49.2475 14.9458C49.358 14.7677 49.414 14.5681 49.414 14.3473V14.1349C49.414 13.7786 49.3021 13.4894 49.0768 13.2685C48.8515 13.0476 48.5444 12.9379 48.157 12.9379C47.7409 12.9379 47.4266 13.049 47.2114 13.2742C46.9976 13.4979 46.89 13.8214 46.89 14.2461V14.2446Z" fill="white"/>
<path d="M51.423 14.2447C51.423 13.7516 51.5349 13.3284 51.7573 12.9749C51.9797 12.6215 52.2968 12.3493 52.7101 12.1598C53.1233 11.9703 53.6098 11.8748 54.1679 11.8748C55.0174 11.8748 55.6775 12.0786 56.1481 12.4861C56.6188 12.8937 56.8541 13.468 56.8541 14.2105C56.8541 14.6979 56.7422 15.1183 56.5198 15.4717C56.2974 15.8251 55.9817 16.0987 55.5699 16.2911C55.1595 16.4835 54.6716 16.5804 54.1077 16.5804C53.264 16.5804 52.6053 16.3752 52.1318 15.9647C51.6583 15.5543 51.4215 14.9814 51.4215 14.2447H51.423ZM52.8765 14.2276C52.8765 14.6409 52.9842 14.9601 53.2008 15.1838C53.4175 15.4075 53.7289 15.5187 54.1335 15.5187C54.5382 15.5187 54.8596 15.4075 55.0791 15.1838C55.2987 14.9601 55.4077 14.6423 55.4077 14.2276C55.4077 13.8129 55.2972 13.488 55.0791 13.2628C54.8596 13.0391 54.5468 12.9279 54.1421 12.9279C53.7375 12.9279 53.4247 13.0391 53.2051 13.2628C52.9856 13.4865 52.8765 13.8086 52.8765 14.2276Z" fill="white"/>
<path d="M57.4521 12.0116H58.8468V12.6913C59.0635 12.4305 59.3088 12.2296 59.5829 12.0885C59.857 11.9474 60.164 11.8762 60.507 11.8762C61.2646 11.8762 61.7668 12.1598 62.0122 12.7255C62.4742 12.1598 63.0726 11.8762 63.8087 11.8762C64.3439 11.8762 64.7586 12.023 65.0485 12.3137C65.3397 12.6058 65.4847 13.0234 65.4847 13.5663V16.4464H64.0569V13.8043C64.0569 13.5093 63.9967 13.2955 63.8776 13.163C63.757 13.0305 63.5605 12.9635 63.2878 12.9635C62.9851 12.9635 62.7153 13.0732 62.4757 13.2941C62.2762 13.4751 62.1758 13.6903 62.1758 13.9397V16.445H60.7552V13.8029C60.7552 13.5079 60.6935 13.2941 60.5715 13.1616C60.4496 13.0291 60.2544 12.9621 59.9861 12.9621C59.6733 12.9621 59.4021 13.0818 59.174 13.3183C58.9745 13.505 58.8741 13.7373 58.8741 14.0152V16.445H57.4535V12.0101L57.4521 12.0116Z" fill="white"/>
<path d="M32.073 21.2261C32.073 20.609 32.2065 20.0603 32.4748 19.5829C32.7431 19.1041 33.1334 18.7279 33.6471 18.4529C34.1608 18.1778 34.785 18.041 35.5197 18.041C37.2301 18.041 38.2675 18.7436 38.6334 20.1473L37.1454 20.3169C37.0149 19.9492 36.8211 19.6827 36.5643 19.5188C36.3074 19.3549 35.9602 19.2723 35.5211 19.2723C34.9342 19.2723 34.4736 19.4419 34.1393 19.7825C33.805 20.1231 33.6385 20.6033 33.6385 21.2261C33.6385 21.8488 33.805 22.3305 34.1393 22.6697C34.4722 23.0088 34.9414 23.1798 35.5455 23.1798C36.4983 23.1798 37.0565 22.8179 37.2215 22.0925H38.7353C38.6492 22.8278 38.3264 23.3993 37.7639 23.804C37.2028 24.2087 36.4538 24.4111 35.5182 24.4111C34.7764 24.4111 34.1493 24.2757 33.6371 24.0078C33.1234 23.7385 32.7345 23.3651 32.4691 22.8863C32.2036 22.4074 32.0716 21.8545 32.0716 21.2261H32.073Z" fill="white"/>
<path d="M39.0441 22.0584C39.0441 21.5653 39.156 21.1421 39.377 20.7886C39.5994 20.4352 39.9165 20.163 40.3312 19.9735C40.7445 19.784 41.2309 19.6885 41.7891 19.6885C42.6385 19.6885 43.2986 19.8923 43.7692 20.2998C44.2399 20.7074 44.4752 21.2817 44.4752 22.0242C44.4752 22.5116 44.3633 22.932 44.1409 23.2854C43.9185 23.6388 43.6028 23.9124 43.191 24.1048C42.7806 24.2972 42.2927 24.3941 41.7288 24.3941C40.8851 24.3941 40.2265 24.1889 39.753 23.7784C39.2794 23.368 39.0427 22.7951 39.0427 22.0584H39.0441ZM40.4991 22.0413C40.4991 22.4546 40.6067 22.7738 40.8234 22.9975C41.0401 23.2212 41.3514 23.3324 41.7561 23.3324C42.1607 23.3324 42.4821 23.2212 42.7017 22.9975C42.9212 22.7738 43.0303 22.456 43.0303 22.0413C43.0303 21.6266 42.9198 21.3017 42.7017 21.0765C42.4821 20.8528 42.1693 20.7416 41.7647 20.7416C41.36 20.7416 41.0472 20.8528 40.8277 21.0765C40.6082 21.3002 40.4991 21.6223 40.4991 22.0413Z" fill="white"/>
<path d="M45.0732 19.8253H46.4679V20.505C46.6846 20.2442 46.93 20.0433 47.204 19.9022C47.4781 19.7611 47.7852 19.6899 48.1281 19.6899C48.8857 19.6899 49.388 19.9735 49.6333 20.5392C50.0954 19.9735 50.6937 19.6899 51.4298 19.6899C51.965 19.6899 52.3797 19.8367 52.6696 20.1274C52.9609 20.4195 53.1058 20.8371 53.1058 21.38V24.2601H51.6781V21.618C51.6781 21.323 51.6178 21.1093 51.4987 20.9767C51.3782 20.8442 51.1816 20.7772 50.909 20.7772C50.6062 20.7772 50.3364 20.8869 50.0968 21.1078C49.8974 21.2888 49.7969 21.504 49.7969 21.7534V24.2587H48.3764V21.6166C48.3764 21.3216 48.3146 21.1078 48.1927 20.9753C48.0707 20.8428 47.8756 20.7758 47.6072 20.7758C47.2944 20.7758 47.0232 20.8955 46.7951 21.1321C46.5956 21.3187 46.4952 21.551 46.4952 21.8289V24.2587H45.0746V19.8238L45.0732 19.8253Z" fill="white"/>
<path d="M53.8923 19.8253H55.287V20.4794C55.4922 20.2186 55.749 20.0219 56.0575 19.8894C56.3646 19.7569 56.7104 19.6899 57.0921 19.6899C57.5312 19.6899 57.9129 19.7868 58.2386 19.9792C58.5629 20.1716 58.8169 20.4395 59.0005 20.7815C59.1828 21.1235 59.2746 21.5282 59.2746 21.9914C59.2746 22.4545 59.1799 22.8692 58.9919 23.2312C58.8039 23.5932 58.5356 23.8782 58.1884 24.0848C57.8397 24.2914 57.4293 24.3941 56.9572 24.3941C56.2383 24.3941 55.6916 24.1589 55.3143 23.6886V25.9061H53.8937V19.8238L53.8923 19.8253ZM57.8268 22.0256C57.8268 21.618 57.7206 21.3031 57.5068 21.0822C57.293 20.8613 56.9888 20.7516 56.5956 20.7516C56.2025 20.7516 55.9097 20.8627 55.6672 21.0822C55.4247 21.3031 55.3042 21.581 55.3042 21.9144V22.1268C55.3042 22.483 55.4161 22.7737 55.6414 22.9975C55.8667 23.2212 56.1709 23.3324 56.5526 23.3324C56.9744 23.3324 57.293 23.2212 57.5068 22.9975C57.7206 22.7737 57.8268 22.4502 57.8268 22.0256Z" fill="white"/>
<path d="M59.5977 23.0189C59.5977 22.5372 59.8058 22.1766 60.2219 21.9358C60.638 21.695 61.2851 21.5639 62.1633 21.5411L63.2151 21.5154V21.3458C63.2151 20.847 62.8865 20.5977 62.2322 20.5977C61.6281 20.5977 61.2651 20.7615 61.146 21.0907L59.8718 20.9895C60.0483 20.1231 60.8532 19.6899 62.2838 19.6899C63.8005 19.6899 64.5582 20.2784 64.5582 21.457V24.2601H63.2581V23.6744C63.007 23.9238 62.7344 24.1033 62.4417 24.2145C62.1475 24.3242 61.8103 24.3798 61.4286 24.3798C60.8418 24.3798 60.3898 24.2615 60.0727 24.0278C59.7555 23.7927 59.5977 23.4578 59.5977 23.0217V23.0189ZM60.9479 22.9162C60.9479 23.2782 61.2392 23.4606 61.8204 23.4606C62.06 23.4606 62.2853 23.4221 62.4962 23.3466C62.7071 23.2697 62.8793 23.1614 63.0142 23.0203C63.1477 22.8792 63.2151 22.7053 63.2151 22.5015V22.2892L62.248 22.3149C61.7974 22.3263 61.4688 22.3804 61.2608 22.4759C61.0527 22.5714 60.9479 22.7196 60.9479 22.9177V22.9162Z" fill="white"/>
<path d="M65.3444 19.8253H66.7391V20.505C66.9845 20.2328 67.2557 20.029 67.5513 19.8937C67.8483 19.7569 68.1812 19.6899 68.5514 19.6899C69.1325 19.6899 69.5802 19.8367 69.8944 20.1274C70.2087 20.4195 70.3651 20.8371 70.3651 21.38V24.2601H68.9445V21.6437C68.9445 21.343 68.8714 21.1235 68.7264 20.9853C68.5815 20.847 68.349 20.7772 68.0291 20.7772C67.8583 20.7772 67.6904 20.8086 67.524 20.8713C67.359 20.934 67.2169 21.0209 67.0964 21.1349C66.874 21.3387 66.7635 21.5795 66.7635 21.8574V24.2615H65.3429V19.8267L65.3444 19.8253Z" fill="white"/>
<path d="M74.512 19.8251L73.2981 22.7309L72.4429 24.3441C72.3338 24.5649 72.2147 24.7203 72.0827 24.8115C71.9521 24.9013 71.7842 24.9469 71.579 24.9469C71.47 24.9469 71.3667 24.9397 71.2662 24.9255C71.1672 24.9112 71.0625 24.8884 70.9549 24.8542L70.7497 25.8133C70.9377 25.8817 71.1141 25.9302 71.2792 25.9587C71.4442 25.9857 71.6278 26 71.8273 26C72.1286 26 72.3855 25.9572 72.5964 25.8689C72.8073 25.7805 72.9996 25.6266 73.1732 25.4057C73.3469 25.1849 73.5291 24.8827 73.7171 24.4965L76 19.8251H74.512ZM70.424 19.8251L71.9622 22.7309H73.2981L71.9722 19.8251H70.424Z" fill="white"/>
<path d="M30.0714 24.2914L29.3711 23.6416C28.7757 24.1432 28.0467 24.3955 27.1886 24.3955C26.7151 24.3955 26.3004 24.3199 25.9403 24.166C25.5801 24.0135 25.3032 23.7969 25.1066 23.5162C24.91 23.2369 24.8124 22.9105 24.8124 22.5414C24.8124 22.141 24.9315 21.7833 25.1712 21.4655C25.4108 21.1477 25.7638 20.8912 26.2301 20.6945C26.0637 20.5036 25.9446 20.3212 25.87 20.143C25.7968 19.9663 25.7595 19.7782 25.7595 19.5759C25.7595 19.298 25.8355 19.0486 25.9891 18.8263C26.1426 18.604 26.3621 18.4287 26.6477 18.3018C26.9332 18.175 27.2661 18.1109 27.6478 18.1109C28.0295 18.1109 28.3667 18.1793 28.6422 18.3189C28.9191 18.4586 29.1243 18.6424 29.2592 18.8733C29.3941 19.1042 29.4529 19.3621 29.4343 19.6443H28.1816C28.1873 19.4533 28.1386 19.3079 28.0338 19.2068C27.9291 19.1056 27.7884 19.0543 27.6105 19.0543C27.4326 19.0543 27.2963 19.1013 27.1815 19.1968C27.0681 19.2923 27.0107 19.4162 27.0107 19.5659C27.0107 19.7155 27.0566 19.8537 27.1485 19.9963C27.2403 20.1373 27.391 20.3112 27.6005 20.5193L29.2219 22.0284C29.2334 22.017 29.2434 22.0042 29.2492 21.9942C29.2549 21.9828 29.2621 21.97 29.2678 21.9586L29.793 21.1349H31.1375L30.4932 22.2008C30.3713 22.4274 30.2378 22.6412 30.0972 22.8421L31.6541 24.29H30.0699L30.0714 24.2914ZM28.5604 22.8863L26.9763 21.4128C26.3808 21.6607 26.0823 22.0142 26.0823 22.4702C26.0823 22.731 26.1871 22.949 26.3966 23.1243C26.6046 23.301 26.8816 23.3879 27.226 23.3879C27.7296 23.3879 28.1744 23.2212 28.5618 22.8863H28.5604Z" fill="white"/>
<path d="M20.6349 12.2964V10.3597C20.6349 10.1545 20.4613 9.98916 20.2547 10.0006C16.5598 10.1915 13.5924 13.1543 13.4231 16.8295V10.6618C13.4231 10.4637 13.2609 10.3027 13.0615 10.3027H10.2534C10.0137 10.3027 9.909 10.6019 10.0955 10.7501L10.6193 11.1663C10.7054 11.2347 10.7542 11.3373 10.7542 11.447V22.802C10.7542 22.9103 10.7039 23.0144 10.6193 23.0828L10.097 23.4989C9.91043 23.6471 10.0166 23.9464 10.2562 23.9464L13.0557 23.9435C13.2552 23.9435 13.4173 23.7825 13.4173 23.5844L13.4245 17.495C13.5938 21.1703 16.5612 24.1316 20.2561 24.324C20.4627 24.334 20.6364 24.1701 20.6364 23.9649V22.0282C20.6364 21.8387 20.4886 21.6848 20.2992 21.6705C17.9473 21.4981 16.0863 19.5429 16.0863 17.163C16.0863 14.7831 17.9473 12.8279 20.2992 12.6555C20.4886 12.6412 20.6364 12.4873 20.6364 12.2978L20.6349 12.2964Z" fill="white"/>
</svg>
